<svg xmlns="http://www.w3.org/2000/svg" width="139.35px" height="132px" viewBox="0 0 76.394 76.395"> <g id="Grupo_1319" data-name="Grupo 1319" transform="translate(0 0)"> <g id="Grupo_1318" data-name="Grupo 1318" transform="translate(0 0)"> <path id="Caminho_418" data-name="Caminho 418" d="M290.268,203.211a1.275,1.275,0,0,0,1.714.556,109.145,109.145,0,0,1,11.266-5.013,1.274,1.274,0,0,0-.769-2.429,109.2,109.2,0,0,0-11.653,5.173A1.274,1.274,0,0,0,290.268,203.211Z" transform="translate(-246.841 -166.982)" fill="#fff"></path> <path id="Caminho_419" data-name="Caminho 419" d="M291.405,101.507a1.271,1.271,0,0,0,.577-.139,109.149,109.149,0,0,1,11.266-5.013,1.274,1.274,0,0,0-.769-2.429A109.2,109.2,0,0,0,290.826,99.1a1.273,1.273,0,0,0,.579,2.408Z" transform="translate(-246.841 -79.862)" fill="#fff"></path> <path id="Caminho_420" data-name="Caminho 420" d="M75.123,19.1a1.273,1.273,0,0,0-1.273,1.273V70.028a3.824,3.824,0,0,1-3.82,3.82H39.472v-2.93a37.521,37.521,0,0,1,11.459-2.163,65.674,65.674,0,0,1,18.7,2.481A1.273,1.273,0,0,0,71.3,70.028V14.006a1.271,1.271,0,0,0-1-1.243s-1-.223-2.7-.536a1.273,1.273,0,0,0-.461,2.5c.651.12,1.2.225,1.616.309V68.336a71.906,71.906,0,0,0-17.825-2.128,40,40,0,0,0-12.683,2.44,29.827,29.827,0,0,0-11.509-2.44,85.8,85.8,0,0,0-19.1,2.181v-53.4a83.808,83.808,0,0,1,19.1-2.259,27.606,27.606,0,0,1,10.186,2.1v50.1a1.273,1.273,0,0,0,1.929,1.091c.126-.075,12.741-7.61,23.938-11.342a1.273,1.273,0,0,0,.871-1.208V1.274A1.275,1.275,0,0,0,61.942.081a135.442,135.442,0,0,0-20.6,10.3,1.273,1.273,0,1,0,1.35,2.159,136.086,136.086,0,0,1,18.424-9.4V52.565A142.687,142.687,0,0,0,39.472,62.724V14.006a1.274,1.274,0,0,0-.7-1.139,29.483,29.483,0,0,0-12.028-2.68,82.636,82.636,0,0,0-20.722,2.6,1.272,1.272,0,0,0-.923,1.224V70.028A1.273,1.273,0,0,0,6.368,71.3a1.255,1.255,0,0,0,.349-.05,81.789,81.789,0,0,1,20.023-2.5,27.544,27.544,0,0,1,10.186,2.1v2.993H6.368a3.824,3.824,0,0,1-3.82-3.82V20.372a1.273,1.273,0,0,0-2.546,0V70.028a6.373,6.373,0,0,0,6.366,6.366H70.03A6.373,6.373,0,0,0,76.4,70.028V20.372A1.273,1.273,0,0,0,75.123,19.1Z" transform="translate(-0.002 0)" fill="#fff"></path> <path id="Caminho_421" data-name="Caminho 421" d="M290.268,152.011a1.275,1.275,0,0,0,1.714.556,109.15,109.15,0,0,1,11.266-5.013,1.274,1.274,0,0,0-.769-2.429,109.214,109.214,0,0,0-11.653,5.173A1.274,1.274,0,0,0,290.268,152.011Z" transform="translate(-246.841 -123.421)" fill="#fff"></path> <path id="Caminho_422" data-name="Caminho 422" d="M290.268,254.411a1.275,1.275,0,0,0,1.714.556,109.145,109.145,0,0,1,11.266-5.013,1.274,1.274,0,0,0-.769-2.429,109.211,109.211,0,0,0-11.653,5.173A1.274,1.274,0,0,0,290.268,254.411Z" transform="translate(-246.841 -210.543)" fill="#fff"></path> <path id="Caminho_423" data-name="Caminho 423" d="M103.449,154.349c-7.862-1.845-16.8.506-17.172.606a1.273,1.273,0,0,0,.329,2.5,1.294,1.294,0,0,0,.331-.043c.085-.024,8.687-2.287,15.932-.587a1.273,1.273,0,1,0,.58-2.479Z" transform="translate(-72.601 -130.72)" fill="#fff"></path> <path id="Caminho_424" data-name="Caminho 424" d="M103.449,205.552c-7.862-1.844-16.8.506-17.172.606a1.273,1.273,0,0,0,.329,2.5,1.294,1.294,0,0,0,.331-.043c.085-.024,8.687-2.287,15.932-.587a1.273,1.273,0,1,0,.58-2.479Z" transform="translate(-72.601 -174.284)" fill="#fff"></path> <path id="Caminho_425" data-name="Caminho 425" d="M290.268,305.611a1.275,1.275,0,0,0,1.714.556,109.139,109.139,0,0,1,11.266-5.013,1.274,1.274,0,0,0-.769-2.429,109.217,109.217,0,0,0-11.653,5.173A1.274,1.274,0,0,0,290.268,305.611Z" transform="translate(-246.841 -254.103)" fill="#fff"></path> <path id="Caminho_426" data-name="Caminho 426" d="M103.449,256.751c-7.862-1.844-16.8.5-17.172.606a1.274,1.274,0,0,0,.329,2.5,1.291,1.291,0,0,0,.331-.045c.085-.024,8.687-2.287,15.932-.587a1.273,1.273,0,1,0,.58-2.479Z" transform="translate(-72.601 -217.843)" fill="#fff"></path> <path id="Caminho_427" data-name="Caminho 427" d="M103.449,359.149c-7.862-1.845-16.8.505-17.172.606a1.274,1.274,0,0,0,.329,2.5,1.292,1.292,0,0,0,.331-.045c.085-.024,8.687-2.287,15.932-.587a1.273,1.273,0,1,0,.58-2.479Z" transform="translate(-72.601 -304.962)" fill="#fff"></path> <path id="Caminho_428" data-name="Caminho 428" d="M103.449,307.948c-7.862-1.845-16.8.5-17.172.606a1.274,1.274,0,0,0,.329,2.5,1.291,1.291,0,0,0,.331-.045c.085-.024,8.687-2.287,15.932-.587a1.273,1.273,0,1,0,.58-2.479Z" transform="translate(-72.601 -261.4)" fill="#fff"></path> </g> </g> </svg>