<svg xmlns="http://www.w3.org/2000/svg" width="139.35px" height="132px" viewBox="0 0 82.77 76.742">    <g id="Grupo_1369" data-name="Grupo 1369" transform="translate(1 1)">      <path id="Caminho_475" data-name="Caminho 475" d="M731.36,160.6a21.064,21.064,0,1,1,38.968-11.1,20.458,20.458,0,0,1-2.489,9.225c-3.357,5.814-10.615,7.2-14.445,3.136-4.187-4.44-1.975-11.861,3.383-11.861a4.129,4.129,0,1,1,0,8.259h-14.8a4.29,4.29,0,0,1-4.129-4.129A4.157,4.157,0,0,1,741.972,150a4.385,4.385,0,0,1,4.129,4.588c0,4.356-1.43,6.961-5.967,8.3-2.793.824-4.723,2.111-4.723,3.8,0,2.071,3.833,3.913,13.381,3.913,6.992,0,10.465.859,10.465,2.824,0,1.8-3.041,3.023-10.141,3.023s-8.757.868-8.757,1.832c0,.941,1.859,1.7,5.7,1.7s9.643-.71,9.643,1.908-5.829,2.777-6.908,2.777h-4.548" transform="translate(-708.929 -109.926)" fill="none" stroke="#fff" stroke-linecap="round" stroke-linejoin="round" stroke-width="2"></path><line id="Linha_20" data-name="Linha 20" y1="5.612" transform="translate(40.127)" fill="none" stroke="#fff" stroke-linecap="round" stroke-linejoin="round" stroke-width="2"></line><line id="Linha_21" data-name="Linha 21" x1="5.612" transform="translate(0 40.127)" fill="none" stroke="#fff" stroke-linecap="round" stroke-linejoin="round" stroke-width="2"></line>      <line id="Linha_22" data-name="Linha 22" x1="5.612" transform="translate(75.158 40.127)" fill="none" stroke="#fff" stroke-linecap="round" stroke-linejoin="round" stroke-width="2"></line>      <line id="Linha_23" data-name="Linha 23" x1="3.968" y1="3.968" transform="translate(11.753 11.753)" fill="none" stroke="#fff" stroke-linecap="round" stroke-linejoin="round" stroke-width="2"></line>      <line id="Linha_24" data-name="Linha 24" x1="3.968" y1="3.968" transform="translate(64.533 64.533)" fill="none" stroke="#fff" stroke-linecap="round" stroke-linejoin="round" stroke-width="2"></line>      <line id="Linha_25" data-name="Linha 25" x1="3.968" y2="3.968" transform="translate(11.753 64.533)" fill="none" stroke="#fff" stroke-linecap="round" stroke-linejoin="round" stroke-width="2"></line>      <line id="Linha_26" data-name="Linha 26" x1="3.968" y2="3.968" transform="translate(64.533 11.753)" fill="none" stroke="#fff" stroke-linecap="round" stroke-linejoin="round" stroke-width="2"></line>    </g>  </svg>