<?xml version="1.0" encoding="utf-8"?>
<!-- Generator: Adobe Illustrator 27.4.1, SVG Export Plug-In . SVG Version: 6.00 Build 0)  -->
<svg version="1.1" id="Camada_1" xmlns:xodm="http://www.corel.com/coreldraw/odm/2003"
	 xmlns="http://www.w3.org/2000/svg" xmlns:xlink="http://www.w3.org/1999/xlink" x="0px" y="0px" viewBox="0 0 122.9 122.9"
	 style="enable-background:new 0 0 122.9 122.9;" xml:space="preserve">
<style type="text/css">
	.st0{fill:url(#SVGID_1_);}
	.st1{fill:#FFFFFF;}
</style>
<g>
	<g>
		<linearGradient id="SVGID_1_" gradientUnits="userSpaceOnUse" x1="5.0371" y1="38.6142" x2="117.8513" y2="84.194">
			<stop  offset="0" style="stop-color:#216BB9"/>
			<stop  offset="1" style="stop-color:#21438E"/>
		</linearGradient>
		<circle class="st0" cx="61.4" cy="61.4" r="60.8"/>
	</g>
	<g>
		<path class="st1" d="M71.1,93.6c-11.7,0-23.3,0-35,0c0-1.9-0.2-3.8,0-5.6c1-8.7,5.5-15.1,13.3-19.1c3-1.5,6.2-2.3,9.6-2.4
			c3.6-0.1,7.2-0.2,10.8,0.9c7.6,2.3,12.8,7.1,15.8,14.5c0.1,0.2,0.2,0.5,0.3,0.9c-0.7-0.3-1.1-0.7-1.6-0.8c-0.5-0.1-1.2-0.2-1.6,0
			c-3.5,1.9-7.2,3-11.1,3.3c-1.2,0.1-1.6,0.5-1.5,1.7c0.2,2,0.5,4,0.8,6C70.9,93,71,93.3,71.1,93.6z"/>
		<path class="st1" d="M46.5,44.5c0-8.6,6.9-15.5,15.4-15.3c7.2,0.2,13.7,5.8,14.4,13c0.8,8-2.2,14.5-8.4,19.4
			c-4.1,3.3-9.1,3-13.3-0.4C49.8,57.3,46.5,50.5,46.5,44.5z"/>
		<path class="st1" d="M83.9,84.5c-0.2-0.1-0.6-0.1-0.8,0c-3.2,1.7-6.6,2.7-10.4,3.1c0,0.5,0,0.9,0.1,1.3c0.9,7,4.4,12.4,10.2,16.3
			c0.4,0.3,0.7,0.2,1.1,0c4.9-3.3,8.2-7.8,9.6-13.5c0.3-1.3,0.5-2.7,0.7-4.1C90.5,87.1,87.1,86.2,83.9,84.5z M90.6,90.6
			c-0.1,0.2-0.3,0.4-0.4,0.5c-1.9,1.9-3.9,3.9-5.8,5.8c-1,1-1.5,1-2.5,0c-1-1-2.1-2.1-3.1-3.1c-0.7-0.7-0.7-1.4-0.2-2
			c0.6-0.6,1.3-0.5,2,0.2c0.8,0.8,1.6,1.7,2.5,2.6c1.7-1.7,3.3-3.4,5-5c0.2-0.2,0.5-0.5,0.7-0.7c0.6-0.4,1.1-0.4,1.6,0.1
			C90.9,89.5,90.9,90,90.6,90.6z"/>
	</g>
</g>
</svg>
