<?xml version="1.0" encoding="utf-8"?>
<!-- Generator: Adobe Illustrator 27.4.1, SVG Export Plug-In . SVG Version: 6.00 Build 0)  -->
<svg version="1.1" id="Camada_1" xmlns:xodm="http://www.corel.com/coreldraw/odm/2003"
	 xmlns="http://www.w3.org/2000/svg" xmlns:xlink="http://www.w3.org/1999/xlink" x="0px" y="0px" viewBox="0 0 122.9 122.9"
	 style="enable-background:new 0 0 122.9 122.9;" xml:space="preserve">
<style type="text/css">
	.st0{fill:url(#SVGID_1_);}
	.st1{fill:#FFFFFF;}
</style>
<g>
	<linearGradient id="SVGID_1_" gradientUnits="userSpaceOnUse" x1="5.0371" y1="38.6142" x2="117.8513" y2="84.194">
		<stop  offset="0" style="stop-color:#216BB9"/>
		<stop  offset="1" style="stop-color:#21438E"/>
	</linearGradient>
	<circle class="st0" cx="61.4" cy="61.4" r="60.8"/>
	<g id="CLOUD_SERVER-2">
		<path class="st1" d="M60.9,45.4c-8.9,0.2-8.9,13.4,0,13.5C69.8,58.8,69.8,45.5,60.9,45.4z M66,50.8c-0.5,0.3-5.2,5.7-5.8,5.4l0,0
			c-0.3,0.1-3.8-2.2-4.2-2.3c-0.5-0.4-0.6-1.1-0.2-1.6c0.3-0.4,0.8-0.5,1.3-0.3l2.8,1.7l4.4-4.4C65.4,48.1,67,49.8,66,50.8z"/>
		<path class="st1" d="M90.2,67.9c-1.4,0-2.7,0.9-3.1,2.3h-4.6v-4.5h7.6c0.2,0,0.3,0,0.5-0.1c7-7.4,1-20.9-9-21.2
			c-4.4-5.4-11.7-7.4-18.2-5c-5.1-12.9-23.9-9.7-24.7,4.2c-7,2.1-10.9,9.4-8.8,16.4c0.6,2,1.7,3.8,3.1,5.3c0.2,0.2,0.5,0.4,0.8,0.4
			h7.7v4.5h-4.7c-0.6-1.7-2.5-2.6-4.2-2c-1.7,0.6-2.6,2.5-2,4.2c0.6,1.7,2.5,2.6,4.2,2c0.9-0.3,1.7-1.1,2-2c8.2-0.2,6.8,1.5,6.9-6.8
			h6.6v14.7h-7.9c-0.6-1.7-2.5-2.6-4.3-2c-1.7,0.6-2.6,2.5-2,4.3c0.6,1.7,2.5,2.6,4.3,2c0.9-0.3,1.7-1.1,2-2h9
			c0.6,0,1.1-0.5,1.1-1.1V65.7h8.8v21.4h-7.9c-0.6-1.7-2.5-2.6-4.2-2c-1.7,0.6-2.6,2.5-2,4.2c0.6,1.7,2.5,2.6,4.2,2
			c0.9-0.3,1.7-1.1,2-2h18.4c0.6,1.7,2.5,2.6,4.2,2c1.7-0.6,2.6-2.5,2-4.2c-0.6-1.7-2.5-2.6-4.2-2c-0.9,0.3-1.7,1.1-2,2h-8.2V65.7
			h7.7v15.8c0,0.6,0.5,1.1,1.1,1.1h9c0.6,1.7,2.5,2.6,4.3,2c1.7-0.6,2.6-2.5,2-4.3s-2.5-2.6-4.3-2c-0.9,0.3-1.7,1.1-2,2h-7.9V65.7
			h6.6c0.1,8.3-1.3,6.6,6.9,6.8c0.6,1.7,2.5,2.6,4.2,2c1.3-0.5,2.2-1.7,2.2-3.1C93.6,69.5,92.1,68,90.2,67.9z M60.9,61.2
			c-11.9-0.3-11.9-17.7,0-18C72.8,43.4,72.8,60.9,60.9,61.2z"/>
	</g>
</g>
</svg>
