<?xml version="1.0" encoding="utf-8"?>
<!-- Generator: Adobe Illustrator 27.4.1, SVG Export Plug-In . SVG Version: 6.00 Build 0)  -->
<svg version="1.1" id="Camada_1" xmlns:xodm="http://www.corel.com/coreldraw/odm/2003"
	 xmlns="http://www.w3.org/2000/svg" xmlns:xlink="http://www.w3.org/1999/xlink" x="0px" y="0px" viewBox="0 0 122.9 122.9"
	 style="enable-background:new 0 0 122.9 122.9;" xml:space="preserve">
<style type="text/css">
	.st0{fill:url(#SVGID_1_);}
	.st1{fill:#FFFFFF;}
</style>
<g>
	<g>
		<g>
			<linearGradient id="SVGID_1_" gradientUnits="userSpaceOnUse" x1="5.0371" y1="38.6142" x2="117.8513" y2="84.194">
				<stop  offset="0" style="stop-color:#216BB9"/>
				<stop  offset="1" style="stop-color:#21438E"/>
			</linearGradient>
			<circle class="st0" cx="61.4" cy="61.4" r="60.8"/>
		</g>
	</g>
	<g>
		<path class="st1" d="M37.7,29c9.3,0,18.6,0,28,0c0,0.3,0,0.5,0,0.8c0,5.9,0,11.8,0,17.8c0,1.8,0.8,2.5,2.6,2.5
			c5.9,0,11.8,0,17.8,0c0.2,0,0.5,0,0.8,0c0,0.2,0,0.4,0,0.6c0,13.6,0,27.2,0,40.7c0,1.5-0.8,2.3-2.3,2.3c-15.3,0-30.7,0-46,0
			c-0.3,0-0.5,0-0.8-0.1c-1.1-0.3-1.6-1.1-1.6-2.5c0-19.8,0-39.7,0-59.5C36.1,30.5,36.5,29.5,37.7,29z M61.5,72.7c2.9,0,5.7,0,8.6,0
			c2,0,4.1,0,6.1,0c1.5,0,2.4-1.3,2.1-2.7c-0.3-1-1.1-1.6-2.3-1.6c-9.7,0-19.4,0-29,0c-0.2,0-0.3,0-0.5,0c-0.9,0.1-1.6,0.7-1.8,1.6
			c-0.3,1.4,0.7,2.6,2.2,2.6C51.7,72.7,56.6,72.7,61.5,72.7z M61.4,60c-1.8,0-3.7,0-5.5,0c-3.1,0-6.2,0-9.2,0
			c-1.5,0-2.4,1.3-2.1,2.7c0.3,1,1.1,1.6,2.3,1.6c9.7,0,19.4,0,29,0c0.1,0,0.3,0,0.4,0c0.9-0.1,1.7-0.8,1.9-1.7
			c0.3-1.4-0.7-2.5-2.2-2.5C71.2,60,66.3,60,61.4,60z M55.1,81.1c2.8,0,5.6,0,8.3,0c1.3,0,2.2-0.9,2.2-2.1c0-1.2-0.9-2.2-2.1-2.2
			c-5.6,0-11.2,0-16.8,0c-0.7,0-1.4,0.3-1.8,0.9c-0.5,0.7-0.5,1.4-0.1,2.2c0.4,0.8,1.1,1.1,2,1.1C49.6,81.1,52.3,81.1,55.1,81.1z"/>
		<path class="st1" d="M69.9,45.9c0-5.2,0-10.3,0-15.4c5.1,5.1,10.3,10.3,15.4,15.4C80.3,45.9,75.1,45.9,69.9,45.9z"/>
	</g>
</g>
</svg>
