<?xml version="1.0" encoding="utf-8"?>
<!-- Generator: Adobe Illustrator 28.3.0, SVG Export Plug-In . SVG Version: 6.00 Build 0)  -->
<svg version="1.1" id="Camada_1" xmlns="http://www.w3.org/2000/svg" xmlns:xlink="http://www.w3.org/1999/xlink" x="0px" y="0px"
	 viewBox="0 0 800 800" style="enable-background:new 0 0 800 800;" xml:space="preserve">
<style type="text/css">
	
		.st0{clip-path:url(#SVGID_00000040533539850132647440000006676866149319956400_);fill:url(#SVGID_00000075878675306544920540000008255792626895613863_);}
	
		.st1{clip-path:url(#SVGID_00000143618314496894321650000015958568210649757852_);fill:url(#SVGID_00000055673864182937023700000014082682588933242764_);}
	
		.st2{clip-path:url(#SVGID_00000183250763546997043860000008821748858662284703_);fill:url(#SVGID_00000031905160117490857210000010274286054880030631_);}
	
		.st3{clip-path:url(#SVGID_00000018226702637934118050000002860389377097996431_);fill:url(#SVGID_00000106129241441352557390000001279945467920371852_);}
	
		.st4{clip-path:url(#SVGID_00000102521165129055802200000002742646403658962066_);fill:url(#SVGID_00000117636270405887802470000002659612820556605583_);}
	
		.st5{clip-path:url(#SVGID_00000101099642011074038470000000098897682431464580_);fill:url(#SVGID_00000145037619017993167330000010872447387082802820_);}
	
		.st6{clip-path:url(#SVGID_00000111155293505536534680000012694820059094931874_);fill:url(#SVGID_00000129192049643210261520000011098148116840234172_);}
	
		.st7{clip-path:url(#SVGID_00000150818190260273737120000013788568516603717778_);fill:url(#SVGID_00000114791885509530873750000014477410186165148293_);}
	
		.st8{clip-path:url(#SVGID_00000022562838227419430910000013135016529578805682_);fill:url(#SVGID_00000127002638892374116230000006106580200628370869_);}
	
		.st9{clip-path:url(#SVGID_00000038377558924979741890000003384621025463860922_);fill:url(#SVGID_00000179630901685699485800000016237054582641055896_);}
	
		.st10{clip-path:url(#SVGID_00000153705358635965569790000011945787643581937285_);fill:url(#SVGID_00000034789591795083818210000015655094262784808578_);}
</style>
<g>
	<defs>
		<path id="SVGID_1_" d="M720.8,105.1H162c-8.6,0-15.5,7-15.5,15.5V638c0,14.3-11.6,25.9-25.9,25.9S94.7,652.3,94.7,638V193
			c0-8.6-7-15.5-15.5-15.5c-8.6,0-15.5,7-15.5,15.5v445c0,31.4,25.5,56.9,56.9,56.9h558.8c31.4,0,56.9-25.5,56.9-56.9V120.6
			C736.3,112,729.4,105.1,720.8,105.1z M705.3,136.1V638c0,14.3-11.6,25.9-25.9,25.9H171.3c4.1-8,6.2-16.7,6.2-25.9V136.1H705.3z"/>
	</defs>
	<clipPath id="SVGID_00000111176673235715164950000009122823821562494103_">
		<use xlink:href="#SVGID_1_"  style="overflow:visible;"/>
	</clipPath>
	
		<linearGradient id="SVGID_00000150806533023384133550000000624227158045187507_" gradientUnits="userSpaceOnUse" x1="-80.2071" y1="316.8416" x2="885.7071" y2="487.1584">
		<stop  offset="0" style="stop-color:#ACFFFF"/>
		<stop  offset="0.1392" style="stop-color:#8DD1EF"/>
		<stop  offset="0.3777" style="stop-color:#5B87D6"/>
		<stop  offset="0.5916" style="stop-color:#344DC2"/>
		<stop  offset="0.7731" style="stop-color:#1823B3"/>
		<stop  offset="0.915" style="stop-color:#060AAA"/>
		<stop  offset="1" style="stop-color:#0000A7"/>
	</linearGradient>
	
		<rect x="-25.8" y="8" style="clip-path:url(#SVGID_00000111176673235715164950000009122823821562494103_);fill:url(#SVGID_00000150806533023384133550000000624227158045187507_);" width="857" height="788"/>
</g>
<g>
	<defs>
		<path id="SVGID_00000076596503371476428270000016872361230610400703_" d="M120.6,653.5c8.6,0,15.5-7,15.5-15.5V162
			c0-8.6-7-15.5-15.5-15.5c-8.6,0-15.5,7-15.5,15.5v476C105.1,646.6,112,653.5,120.6,653.5z"/>
	</defs>
	<clipPath id="SVGID_00000148650674374735275590000008801184434639366281_">
		<use xlink:href="#SVGID_00000076596503371476428270000016872361230610400703_"  style="overflow:visible;"/>
	</clipPath>
	
		<linearGradient id="SVGID_00000183231781117115973340000004469502328931315330_" gradientUnits="userSpaceOnUse" x1="-80.2071" y1="316.8416" x2="885.7071" y2="487.1584">
		<stop  offset="0" style="stop-color:#ACFFFF"/>
		<stop  offset="0.1392" style="stop-color:#8DD1EF"/>
		<stop  offset="0.3777" style="stop-color:#5B87D6"/>
		<stop  offset="0.5916" style="stop-color:#344DC2"/>
		<stop  offset="0.7731" style="stop-color:#1823B3"/>
		<stop  offset="0.915" style="stop-color:#060AAA"/>
		<stop  offset="1" style="stop-color:#0000A7"/>
	</linearGradient>
	
		<rect x="-25.8" y="8" style="clip-path:url(#SVGID_00000148650674374735275590000008801184434639366281_);fill:url(#SVGID_00000183231781117115973340000004469502328931315330_);" width="857" height="788"/>
</g>
<g>
	<defs>
		<path id="SVGID_00000003092906023441043310000016753444763123474861_" d="M224.1,508.7h165.6c8.6,0,15.5-7,15.5-15.5V306.9
			c0-8.6-7-15.5-15.5-15.5H224.1c-8.6,0-15.5,7-15.5,15.5v186.3C208.5,501.7,215.5,508.7,224.1,508.7z M239.6,477.6V322.4h134.5
			v155.2H239.6z"/>
	</defs>
	<clipPath id="SVGID_00000070824474642638191120000014384084925972243602_">
		<use xlink:href="#SVGID_00000003092906023441043310000016753444763123474861_"  style="overflow:visible;"/>
	</clipPath>
	
		<linearGradient id="SVGID_00000059287496523472401940000018090586105224625340_" gradientUnits="userSpaceOnUse" x1="-80.2071" y1="316.8416" x2="885.7071" y2="487.1584">
		<stop  offset="0" style="stop-color:#ACFFFF"/>
		<stop  offset="0.1392" style="stop-color:#8DD1EF"/>
		<stop  offset="0.3777" style="stop-color:#5B87D6"/>
		<stop  offset="0.5916" style="stop-color:#344DC2"/>
		<stop  offset="0.7731" style="stop-color:#1823B3"/>
		<stop  offset="0.915" style="stop-color:#060AAA"/>
		<stop  offset="1" style="stop-color:#0000A7"/>
	</linearGradient>
	
		<rect x="-25.8" y="8" style="clip-path:url(#SVGID_00000070824474642638191120000014384084925972243602_);fill:url(#SVGID_00000059287496523472401940000018090586105224625340_);" width="857" height="788"/>
</g>
<g>
	<defs>
		<path id="SVGID_00000129205045923997354180000008264999516622490509_" d="M224.1,192h434.6c8.6,0,15.5-5.6,15.5-12.4
			c0-6.9-7-12.4-15.5-12.4H224.1c-8.6,0-15.5,5.6-15.5,12.4C208.5,186.4,215.5,192,224.1,192z"/>
	</defs>
	<clipPath id="SVGID_00000141444165362401242310000011601623182365599657_">
		<use xlink:href="#SVGID_00000129205045923997354180000008264999516622490509_"  style="overflow:visible;"/>
	</clipPath>
	
		<linearGradient id="SVGID_00000054238787604454617090000017912588816524156586_" gradientUnits="userSpaceOnUse" x1="-80.2071" y1="316.8416" x2="885.7071" y2="487.1584">
		<stop  offset="0" style="stop-color:#ACFFFF"/>
		<stop  offset="0.1392" style="stop-color:#8DD1EF"/>
		<stop  offset="0.3777" style="stop-color:#5B87D6"/>
		<stop  offset="0.5916" style="stop-color:#344DC2"/>
		<stop  offset="0.7731" style="stop-color:#1823B3"/>
		<stop  offset="0.915" style="stop-color:#060AAA"/>
		<stop  offset="1" style="stop-color:#0000A7"/>
	</linearGradient>
	
		<rect x="-25.8" y="8" style="clip-path:url(#SVGID_00000141444165362401242310000011601623182365599657_);fill:url(#SVGID_00000054238787604454617090000017912588816524156586_);" width="857" height="788"/>
</g>
<g>
	<defs>
		<path id="SVGID_00000087376307554643565060000007364568640926412448_" d="M224.1,260.3h434.6c8.6,0,15.5-7,15.5-15.5
			c0-8.6-7-15.5-15.5-15.5H224.1c-8.6,0-15.5,7-15.5,15.5C208.5,253.3,215.5,260.3,224.1,260.3z"/>
	</defs>
	<clipPath id="SVGID_00000034067179735632458610000001270829502839615396_">
		<use xlink:href="#SVGID_00000087376307554643565060000007364568640926412448_"  style="overflow:visible;"/>
	</clipPath>
	
		<linearGradient id="SVGID_00000058574803272385717680000001561942037215401125_" gradientUnits="userSpaceOnUse" x1="-80.2071" y1="316.8416" x2="885.7071" y2="487.1584">
		<stop  offset="0" style="stop-color:#ACFFFF"/>
		<stop  offset="0.1392" style="stop-color:#8DD1EF"/>
		<stop  offset="0.3777" style="stop-color:#5B87D6"/>
		<stop  offset="0.5916" style="stop-color:#344DC2"/>
		<stop  offset="0.7731" style="stop-color:#1823B3"/>
		<stop  offset="0.915" style="stop-color:#060AAA"/>
		<stop  offset="1" style="stop-color:#0000A7"/>
	</linearGradient>
	
		<rect x="-25.8" y="8" style="clip-path:url(#SVGID_00000034067179735632458610000001270829502839615396_);fill:url(#SVGID_00000058574803272385717680000001561942037215401125_);" width="857" height="788"/>
</g>
<g>
	<defs>
		<path id="SVGID_00000085220920567369738840000003215647780358633889_" d="M224.1,570.8h434.6c8.6,0,15.5-7,15.5-15.5
			c0-8.6-7-15.5-15.5-15.5H224.1c-8.6,0-15.5,7-15.5,15.5C208.5,563.8,215.5,570.8,224.1,570.8z"/>
	</defs>
	<clipPath id="SVGID_00000153691838127359011290000012124422802190512551_">
		<use xlink:href="#SVGID_00000085220920567369738840000003215647780358633889_"  style="overflow:visible;"/>
	</clipPath>
	
		<linearGradient id="SVGID_00000010296686592113011810000002125334281436523687_" gradientUnits="userSpaceOnUse" x1="-80.2071" y1="316.8416" x2="885.7071" y2="487.1584">
		<stop  offset="0" style="stop-color:#ACFFFF"/>
		<stop  offset="0.1392" style="stop-color:#8DD1EF"/>
		<stop  offset="0.3777" style="stop-color:#5B87D6"/>
		<stop  offset="0.5916" style="stop-color:#344DC2"/>
		<stop  offset="0.7731" style="stop-color:#1823B3"/>
		<stop  offset="0.915" style="stop-color:#060AAA"/>
		<stop  offset="1" style="stop-color:#0000A7"/>
	</linearGradient>
	
		<rect x="-25.8" y="8" style="clip-path:url(#SVGID_00000153691838127359011290000012124422802190512551_);fill:url(#SVGID_00000010296686592113011810000002125334281436523687_);" width="857" height="788"/>
</g>
<g>
	<defs>
		<path id="SVGID_00000061470553578608263110000014765948289512600749_" d="M658.7,291.3h-207c-8.6,0-15.5,7-15.5,15.5
			c0,8.6,7,15.5,15.5,15.5h207c8.6,0,15.5-7,15.5-15.5C674.2,298.3,667.3,291.3,658.7,291.3z"/>
	</defs>
	<clipPath id="SVGID_00000103946454815303157060000006584270619406251183_">
		<use xlink:href="#SVGID_00000061470553578608263110000014765948289512600749_"  style="overflow:visible;"/>
	</clipPath>
	
		<linearGradient id="SVGID_00000003069614125181973170000009921354995662379166_" gradientUnits="userSpaceOnUse" x1="-80.2071" y1="316.8416" x2="885.7071" y2="487.1584">
		<stop  offset="0" style="stop-color:#ACFFFF"/>
		<stop  offset="0.1392" style="stop-color:#8DD1EF"/>
		<stop  offset="0.3777" style="stop-color:#5B87D6"/>
		<stop  offset="0.5916" style="stop-color:#344DC2"/>
		<stop  offset="0.7731" style="stop-color:#1823B3"/>
		<stop  offset="0.915" style="stop-color:#060AAA"/>
		<stop  offset="1" style="stop-color:#0000A7"/>
	</linearGradient>
	
		<rect x="-25.8" y="8" style="clip-path:url(#SVGID_00000103946454815303157060000006584270619406251183_);fill:url(#SVGID_00000003069614125181973170000009921354995662379166_);" width="857" height="788"/>
</g>
<g>
	<defs>
		<path id="SVGID_00000137092251796989962490000010024805034961091246_" d="M658.7,353.4h-207c-8.6,0-15.5,7-15.5,15.5
			c0,8.6,7,15.5,15.5,15.5h207c8.6,0,15.5-7,15.5-15.5C674.2,360.4,667.3,353.4,658.7,353.4z"/>
	</defs>
	<clipPath id="SVGID_00000090277085178208968220000016381885895869937824_">
		<use xlink:href="#SVGID_00000137092251796989962490000010024805034961091246_"  style="overflow:visible;"/>
	</clipPath>
	
		<linearGradient id="SVGID_00000099640441328527957350000011267764812911308198_" gradientUnits="userSpaceOnUse" x1="-80.2071" y1="316.8416" x2="885.7071" y2="487.1584">
		<stop  offset="0" style="stop-color:#ACFFFF"/>
		<stop  offset="0.1392" style="stop-color:#8DD1EF"/>
		<stop  offset="0.3777" style="stop-color:#5B87D6"/>
		<stop  offset="0.5916" style="stop-color:#344DC2"/>
		<stop  offset="0.7731" style="stop-color:#1823B3"/>
		<stop  offset="0.915" style="stop-color:#060AAA"/>
		<stop  offset="1" style="stop-color:#0000A7"/>
	</linearGradient>
	
		<rect x="-25.8" y="8" style="clip-path:url(#SVGID_00000090277085178208968220000016381885895869937824_);fill:url(#SVGID_00000099640441328527957350000011267764812911308198_);" width="857" height="788"/>
</g>
<g>
	<defs>
		<path id="SVGID_00000172413116520043385250000002325903776670146968_" d="M658.7,415.5h-207c-8.6,0-15.5,7-15.5,15.5
			s7,15.5,15.5,15.5h207c8.6,0,15.5-7,15.5-15.5S667.3,415.5,658.7,415.5z"/>
	</defs>
	<clipPath id="SVGID_00000116213279249611211150000015531383259374849153_">
		<use xlink:href="#SVGID_00000172413116520043385250000002325903776670146968_"  style="overflow:visible;"/>
	</clipPath>
	
		<linearGradient id="SVGID_00000142878801450051722170000011517820991003663012_" gradientUnits="userSpaceOnUse" x1="-80.2071" y1="316.8416" x2="885.7071" y2="487.1584">
		<stop  offset="0" style="stop-color:#ACFFFF"/>
		<stop  offset="0.1392" style="stop-color:#8DD1EF"/>
		<stop  offset="0.3777" style="stop-color:#5B87D6"/>
		<stop  offset="0.5916" style="stop-color:#344DC2"/>
		<stop  offset="0.7731" style="stop-color:#1823B3"/>
		<stop  offset="0.915" style="stop-color:#060AAA"/>
		<stop  offset="1" style="stop-color:#0000A7"/>
	</linearGradient>
	
		<rect x="-25.8" y="8" style="clip-path:url(#SVGID_00000116213279249611211150000015531383259374849153_);fill:url(#SVGID_00000142878801450051722170000011517820991003663012_);" width="857" height="788"/>
</g>
<g>
	<defs>
		<path id="SVGID_00000160154713037039356780000004783522132437157774_" d="M658.7,477.6h-207c-8.6,0-15.5,7-15.5,15.5
			c0,8.6,7,15.5,15.5,15.5h207c8.6,0,15.5-7,15.5-15.5C674.2,484.6,667.3,477.6,658.7,477.6z"/>
	</defs>
	<clipPath id="SVGID_00000129907364503838278610000000540458050710674084_">
		<use xlink:href="#SVGID_00000160154713037039356780000004783522132437157774_"  style="overflow:visible;"/>
	</clipPath>
	
		<linearGradient id="SVGID_00000033343891852572050940000014625872504620513970_" gradientUnits="userSpaceOnUse" x1="-80.2071" y1="316.8416" x2="885.7071" y2="487.1584">
		<stop  offset="0" style="stop-color:#ACFFFF"/>
		<stop  offset="0.1392" style="stop-color:#8DD1EF"/>
		<stop  offset="0.3777" style="stop-color:#5B87D6"/>
		<stop  offset="0.5916" style="stop-color:#344DC2"/>
		<stop  offset="0.7731" style="stop-color:#1823B3"/>
		<stop  offset="0.915" style="stop-color:#060AAA"/>
		<stop  offset="1" style="stop-color:#0000A7"/>
	</linearGradient>
	
		<rect x="-25.8" y="8" style="clip-path:url(#SVGID_00000129907364503838278610000000540458050710674084_);fill:url(#SVGID_00000033343891852572050940000014625872504620513970_);" width="857" height="788"/>
</g>
<g>
	<defs>
		<path id="SVGID_00000092447470144974956270000011976023395333725093_" d="M658.7,601.8h-207c-8.6,0-15.5,7-15.5,15.5
			c0,8.6,7,15.5,15.5,15.5h207c8.6,0,15.5-7,15.5-15.5C674.2,608.8,667.3,601.8,658.7,601.8z"/>
	</defs>
	<clipPath id="SVGID_00000043441902051395912300000005392829676518337429_">
		<use xlink:href="#SVGID_00000092447470144974956270000011976023395333725093_"  style="overflow:visible;"/>
	</clipPath>
	
		<linearGradient id="SVGID_00000070833702406028397800000016248379605458824343_" gradientUnits="userSpaceOnUse" x1="-80.2071" y1="316.8416" x2="885.7071" y2="487.1584">
		<stop  offset="0" style="stop-color:#ACFFFF"/>
		<stop  offset="0.1392" style="stop-color:#8DD1EF"/>
		<stop  offset="0.3777" style="stop-color:#5B87D6"/>
		<stop  offset="0.5916" style="stop-color:#344DC2"/>
		<stop  offset="0.7731" style="stop-color:#1823B3"/>
		<stop  offset="0.915" style="stop-color:#060AAA"/>
		<stop  offset="1" style="stop-color:#0000A7"/>
	</linearGradient>
	
		<rect x="-25.8" y="8" style="clip-path:url(#SVGID_00000043441902051395912300000005392829676518337429_);fill:url(#SVGID_00000070833702406028397800000016248379605458824343_);" width="857" height="788"/>
</g>
</svg>
