<?xml version="1.0" encoding="utf-8"?>
<!-- Generator: Adobe Illustrator 28.3.0, SVG Export Plug-In . SVG Version: 6.00 Build 0)  -->
<svg version="1.1" id="Camada_1" xmlns="http://www.w3.org/2000/svg" xmlns:xlink="http://www.w3.org/1999/xlink" x="0px" y="0px"
	 viewBox="0 0 800 800" style="enable-background:new 0 0 800 800;" xml:space="preserve">
<style type="text/css">
	
		.st0{clip-path:url(#SVGID_00000052804183076896517230000005021889107127428487_);fill:url(#SVGID_00000065046197852081679470000006056016129433576877_);}
	
		.st1{clip-path:url(#SVGID_00000042009808382579891070000004432441912012249490_);fill:url(#SVGID_00000128456993241595817450000001477405067866625451_);}
	
		.st2{clip-path:url(#SVGID_00000109731574227229227630000004156585929560804736_);fill:url(#SVGID_00000044868989114949013650000012221589549063141544_);}
</style>
<g>
	<defs>
		<path id="SVGID_1_" d="M470.1,441.8c13.7-18.4,22-42.2,22-68.1c0-58-41.3-105.2-92-105.2c-50.8,0-92,47.2-92,105.2
			c0,26,8.3,49.7,22,68.1c-68.9,30.6-114,95.5-114,142.3c0,16.1,6.8,38.9,39.3,55.5c30.3,15.5,79,23.4,144.8,23.4
			c65.8,0,114.6-7.9,144.8-23.4c32.5-16.6,39.3-39.4,39.3-55.5C584.1,537.3,539,472.4,470.1,441.8z M400,294.8
			c36.3,0,65.8,35.4,65.8,78.9c0,25.3-10,47.8-25.5,62.3c-1.1,0.7-2.2,1.6-3.1,2.7c-10.6,8.8-23.4,13.9-37.2,13.9
			c-13.8,0-26.6-5.2-37.2-13.9c-0.9-1.1-1.9-2-3.1-2.7c-15.5-14.4-25.5-37-25.5-62.3C334.2,330.2,363.7,294.8,400,294.8z M400,636.7
			c-100.3,0-157.8-19.2-157.8-52.6c0-34.2,38.3-96,107.8-122.1c14.4,10.7,31.6,16.9,50,16.9c18.4,0,35.6-6.2,50-16.9
			c69.5,26.1,107.8,87.9,107.8,122.1C557.8,617.5,500.3,636.7,400,636.7z"/>
	</defs>
	<clipPath id="SVGID_00000061466938705904713540000005411942229323504003_">
		<use xlink:href="#SVGID_1_"  style="overflow:visible;"/>
	</clipPath>
	
		<linearGradient id="SVGID_00000023282438056755373480000016510700902990395018_" gradientUnits="userSpaceOnUse" x1="-71.6566" y1="318.3493" x2="877.1566" y2="485.6507">
		<stop  offset="0" style="stop-color:#ACFFFF"/>
		<stop  offset="0.1392" style="stop-color:#8DD1EF"/>
		<stop  offset="0.3777" style="stop-color:#5B87D6"/>
		<stop  offset="0.5916" style="stop-color:#344DC2"/>
		<stop  offset="0.7731" style="stop-color:#1823B3"/>
		<stop  offset="0.915" style="stop-color:#060AAA"/>
		<stop  offset="1" style="stop-color:#0000A7"/>
	</linearGradient>
	
		<rect x="-25.8" y="58" style="clip-path:url(#SVGID_00000061466938705904713540000005411942229323504003_);fill:url(#SVGID_00000023282438056755373480000016510700902990395018_);" width="857" height="688"/>
</g>
<g>
	<defs>
		<path id="SVGID_00000016035964311609181890000008202117382654326699_" d="M680.5,310.3c13.7-18.4,22-42.2,22-68.1
			c0-58-41.3-105.2-92-105.2c-50.8,0-92.1,47.2-92.1,105.2c0,25.9,8.3,49.7,21.9,68.1c-10.5,4.7-20.7,10.2-30.5,16.5
			c-6.1,4-7.8,12.1-3.8,18.2c2.5,3.9,6.7,6,11,6c2.5,0,5-0.7,7.2-2.1c11.4-7.5,23.6-13.6,36.2-18.4c14.4,10.7,31.6,16.9,50,16.9
			c18.4,0,35.6-6.2,50-16.9c69.5,26.1,107.8,87.9,107.8,122.1c0,33.4-57.5,52.6-157.8,52.6c-7.3,0-13.2,5.9-13.2,13.1
			s5.9,13.2,13.2,13.2c65.8,0,114.6-7.9,144.8-23.4c32.5-16.6,39.3-39.4,39.3-55.5C794.5,405.8,749.4,340.9,680.5,310.3z
			 M573.2,307.2c-0.9-1.1-1.9-2-3-2.7c-15.5-14.4-25.5-37-25.5-62.3c0-43.5,29.5-78.9,65.8-78.9c36.3,0,65.8,35.4,65.8,78.9
			c0,25.3-10,47.8-25.5,62.3c-1.1,0.7-2.2,1.6-3.1,2.7c-10.6,8.8-23.4,13.9-37.2,13.9C596.6,321.1,583.8,315.9,573.2,307.2z"/>
	</defs>
	<clipPath id="SVGID_00000009562312201237533950000018416016615161258430_">
		<use xlink:href="#SVGID_00000016035964311609181890000008202117382654326699_"  style="overflow:visible;"/>
	</clipPath>
	
		<linearGradient id="SVGID_00000035530467901560036250000015232953928253050041_" gradientUnits="userSpaceOnUse" x1="-71.6566" y1="318.3493" x2="877.1566" y2="485.6507">
		<stop  offset="0" style="stop-color:#ACFFFF"/>
		<stop  offset="0.1392" style="stop-color:#8DD1EF"/>
		<stop  offset="0.3777" style="stop-color:#5B87D6"/>
		<stop  offset="0.5916" style="stop-color:#344DC2"/>
		<stop  offset="0.7731" style="stop-color:#1823B3"/>
		<stop  offset="0.915" style="stop-color:#060AAA"/>
		<stop  offset="1" style="stop-color:#0000A7"/>
	</linearGradient>
	
		<rect x="-25.8" y="58" style="clip-path:url(#SVGID_00000009562312201237533950000018416016615161258430_);fill:url(#SVGID_00000035530467901560036250000015232953928253050041_);" width="857" height="688"/>
</g>
<g>
	<defs>
		<path id="SVGID_00000050646916443262582350000001843049937961713597_" d="M189.6,505.2c-100.3,0-157.8-19.2-157.8-52.6
			c0-34.2,38.3-96,107.8-122.1c14.4,10.7,31.6,16.9,50,16.9c18.4,0,35.6-6.2,50-16.9c12.6,4.7,24.7,10.9,36.2,18.4
			c2.2,1.5,4.7,2.1,7.2,2.1c4.3,0,8.5-2.1,11-6c4-6.1,2.3-14.2-3.8-18.2c-9.7-6.4-19.9-11.9-30.5-16.5
			c13.7-18.4,21.9-42.1,21.9-68.1c0-58-41.3-105.2-92.1-105.2c-50.8,0-92,47.2-92,105.2c0,26,8.3,49.7,22,68.1
			c-68.9,30.6-114,95.5-114,142.3c0,16.1,6.8,38.9,39.3,55.5c30.3,15.5,79,23.4,144.8,23.4c7.3,0,13.2-5.9,13.2-13.2
			S196.9,505.2,189.6,505.2z M189.6,163.3c36.3,0,65.8,35.4,65.8,78.9c0,25.3-10,47.8-25.5,62.3c-1.1,0.7-2.2,1.6-3.1,2.7
			c-10.6,8.8-23.4,13.9-37.2,13.9c-13.8,0-26.6-5.2-37.2-13.9c-0.9-1.1-1.9-2-3-2.7c-15.5-14.4-25.5-37-25.5-62.3
			C123.8,198.7,153.3,163.3,189.6,163.3z"/>
	</defs>
	<clipPath id="SVGID_00000043445154694632134280000016362863785379647134_">
		<use xlink:href="#SVGID_00000050646916443262582350000001843049937961713597_"  style="overflow:visible;"/>
	</clipPath>
	
		<linearGradient id="SVGID_00000025439011417591924020000016894111746662703275_" gradientUnits="userSpaceOnUse" x1="-71.6566" y1="318.3493" x2="877.1566" y2="485.6507">
		<stop  offset="0" style="stop-color:#ACFFFF"/>
		<stop  offset="0.1392" style="stop-color:#8DD1EF"/>
		<stop  offset="0.3777" style="stop-color:#5B87D6"/>
		<stop  offset="0.5916" style="stop-color:#344DC2"/>
		<stop  offset="0.7731" style="stop-color:#1823B3"/>
		<stop  offset="0.915" style="stop-color:#060AAA"/>
		<stop  offset="1" style="stop-color:#0000A7"/>
	</linearGradient>
	
		<rect x="-25.8" y="58" style="clip-path:url(#SVGID_00000043445154694632134280000016362863785379647134_);fill:url(#SVGID_00000025439011417591924020000016894111746662703275_);" width="857" height="688"/>
</g>
</svg>
