<?xml version="1.0" encoding="utf-8"?>
<!-- Generator: Adobe Illustrator 28.3.0, SVG Export Plug-In . SVG Version: 6.00 Build 0)  -->
<svg version="1.1" id="Camada_1" xmlns="http://www.w3.org/2000/svg" xmlns:xlink="http://www.w3.org/1999/xlink" x="0px" y="0px"
	 viewBox="0 0 800 800" style="enable-background:new 0 0 800 800;" xml:space="preserve">
<style type="text/css">
	
		.st0{clip-path:url(#SVGID_00000078041253777646333370000005228191559161705909_);fill:url(#SVGID_00000116193544484416107880000001858809933412562846_);}
</style>
<g>
	<defs>
		<path id="SVGID_1_" d="M695.7,400l28.3-49c25.3-43.8,25.3-96.2,0-140c-25.3-43.8-70.6-70-121.3-70h-14.6h-41.9l-25-43.3
			c-25.3-43.8-70.6-70-121.3-70c-50.6,0-95.9,26.2-121.2,70l-3.7,6.4v0L253.8,141h-5.7h-50.8c-50.6,0-95.9,26.2-121.3,70
			c-25.3,43.8-25.3,96.2,0,140l6.6,11.5l0,0l21.6,37.5l-2.8,4.9l0,0L76,449c-25.3,43.8-25.3,96.2,0,140c25.3,43.8,70.6,70,121.2,70
			h14.6h41.9l25,43.3c25.3,43.8,70.6,70,121.2,70c0,0,0,0,0,0c50.6,0,95.9-26.2,121.3-70l3.7-6.4v0l21.3-36.9h5.7h50.8
			c50.6,0,95.9-26.2,121.3-70c25.3-43.8,25.3-96.2,0-140L695.7,400z M248.1,340.5v119.1l-109.8-64.4l109.8-190.2V340.5z
			 M319.6,595.8L266.5,627l-64.1-111l-23.3-40.3l-22-38.2l118,69.2v0l98.2,57.6L319.6,595.8z M275.1,475.4V324.6L400,251.4
			l124.9,73.3v150.8L400,548.6L275.1,475.4z M597.6,284l13.1,22.7l32.2,55.8l-118-69.2v0l-98.2-57.6L533.5,173L597.6,284z
			 M551.9,340.5l46.8,27.5l63,36.9L551.9,595.1V459.5V340.5z M424.6,205.6l-149.6,87.7V168h213.6L424.6,205.6z M426.7,564.3
			l98.2-57.6V632H311.3L426.7,564.3L426.7,564.3z M602.8,168c40.9,0,77.4,21.1,97.9,56.5c20.4,35.4,20.4,77.6,0,113L680.2,373
			l-14-24.3L621,270.5L561.8,168H602.8z M302.1,111.3c20.4-35.4,57-56.5,97.9-56.5c40.9,0,77.4,21.1,97.9,56.5L515,141H285
			L302.1,111.3z M99.4,224.5c20.4-35.4,57-56.5,97.9-56.5h41l-55.3,95.8l-63,109.2l-20.5-35.5C78.9,302.1,78.9,259.9,99.4,224.5z
			 M197.2,632c-40.9,0-77.4-21.1-97.9-56.5c-20.4-35.4-20.4-77.6,0-113l20.5-35.5L179,529.5L238.2,632H197.2z M497.9,688.7
			c-20.4,35.4-57,56.5-97.9,56.5c-40.9,0-77.4-21.1-97.9-56.5L285,659H515L497.9,688.7z M700.6,575.5c-20.4,35.4-57,56.5-97.9,56.5
			h-41l118.3-205l20.5,35.5C721.1,497.9,721.1,540.1,700.6,575.5z"/>
	</defs>
	<clipPath id="SVGID_00000165953151248009321780000015368335370891900602_">
		<use xlink:href="#SVGID_1_"  style="overflow:visible;"/>
	</clipPath>
	
		<linearGradient id="SVGID_00000177447787794161333530000008757188057321598337_" gradientUnits="userSpaceOnUse" x1="-80.2071" y1="316.8416" x2="885.7071" y2="487.1584">
		<stop  offset="0" style="stop-color:#DFCCFF"/>
		<stop  offset="0.2806" style="stop-color:#E0A2FF"/>
		<stop  offset="0.5989" style="stop-color:#E078FF"/>
		<stop  offset="0.8498" style="stop-color:#E15FFF"/>
		<stop  offset="1" style="stop-color:#E155FF"/>
	</linearGradient>
	
		<rect x="-25.8" y="8" style="clip-path:url(#SVGID_00000165953151248009321780000015368335370891900602_);fill:url(#SVGID_00000177447787794161333530000008757188057321598337_);" width="857" height="788"/>
</g>
</svg>
