<svg xmlns="http://www.w3.org/2000/svg" width="88.44px" height="81.52px" viewBox="0 0 78.79 74.556"> <path id="Caminho_430" data-name="Caminho 430" d="M14.771,90.969l7.75,13.424a6.155,6.155,0,1,0,10.661-6.155l-4.617-8,4-2.308a1.539,1.539,0,0,0,.563-2.1l-2-3.466L60.6,76.583a4.616,4.616,0,0,0,3.742-6.917l-5.114-8.858,3.268-4.95a1.539,1.539,0,0,0,.049-1.618l-3.078-5.331a1.542,1.542,0,0,0-1.425-.767l-5.92.355-5.677-9.834a4.577,4.577,0,0,0-3.94-2.308h-.059a4.576,4.576,0,0,0-3.887,2.129l-20.1,25.609L5.387,71.638a10.772,10.772,0,0,0,9.384,19.331Zm15.746,8.808a3.078,3.078,0,0,1-5.331,3.077L17.491,89.526l5.331-3.078Zm-3.491-12.2-1.539-2.665,2.665-1.539,1.539,2.665Zm30.251-36.3L59.4,54.955l-1.9,2.872-3.666-6.35Zm-16.145-11.1a1.538,1.538,0,0,1,2.646.031l17.9,31a1.539,1.539,0,0,1-1.295,2.307,5.65,5.65,0,0,0-.844.143L40.605,40.86C41,40.35,41.053,40.3,41.132,40.171Zm-2.575,3.3L56.346,74.281,29.5,79.547,21.336,65.408ZM4.109,84.814A7.689,7.689,0,0,1,6.926,74.3L18.92,67.378l7.694,13.327L14.62,87.63A7.7,7.7,0,0,1,4.109,84.814Z" transform="translate(0 -32.915)" fill="#f37f1f"></path> <path id="Caminho_432" data-name="Caminho 432" d="M445.641,56.676l-8.575,4.772a1.539,1.539,0,1,0,1.5,2.689l8.574-4.772a1.539,1.539,0,0,0-1.5-2.689Z" transform="translate(-369.138 -49.944)" fill="#f37f1f"></path> <path id="Caminho_433" data-name="Caminho 433" d="M447.947,152.267,442,150.674a1.539,1.539,0,1,0-.8,2.972l5.946,1.593a1.539,1.539,0,1,0,.8-2.973Z" transform="translate(-372.343 -129.597)" fill="#f37f1f"></path> <path id="Caminho_434" data-name="Caminho 434" d="M385.14,15.141l-1.595,5.946a1.539,1.539,0,1,0,2.973.8l1.594-5.946a1.539,1.539,0,1,0-2.973-.8Z" transform="translate(-324.478 -14)" fill="#f37f1f"></path> </svg>