<svg id="Grupo_1508" data-name="Grupo 1508" xmlns="http://www.w3.org/2000/svg" width="88.44px" height="81.52px" viewBox="0 0 88.439 81.516">    <path id="Caminho_395" data-name="Caminho 395" d="M87.141,98.92H84.285V62.748h2.856a1.3,1.3,0,0,0,1.1-1.995l-9.692-15.23a1.3,1.3,0,0,0-1.1-.6H51.68L45.517,38.76V33.673H58.065a1.3,1.3,0,0,0,1.08-2.018l-2.289-3.434,2.289-3.434a1.3,1.3,0,0,0-1.08-2.018H45.517V21.3a1.3,1.3,0,0,0-2.6,0V38.76l-6.162,6.162H10.99a1.3,1.3,0,0,0-1.1.6L.2,60.754a1.3,1.3,0,0,0,1.1,1.995H4.154V98.92H1.3a1.3,1.3,0,1,0,0,2.6H87.141a1.3,1.3,0,1,0,0-2.6Zm-10.4-51.4,8.04,12.634H66.91L54.276,47.518ZM55.64,25.365,54.216,27.5a1.3,1.3,0,0,0,0,1.44l1.424,2.136H45.517V25.365ZM11.7,47.518h22.46L21.529,60.152H3.663ZM6.75,62.748H22.066a1.281,1.281,0,0,0,.129-.007l.055-.008c.024,0,.047-.006.071-.011s.042-.01.062-.015l.061-.016.06-.021.06-.022.055-.026c.02-.01.04-.018.06-.029l.052-.031c.019-.011.038-.022.057-.035s.038-.027.056-.041.031-.022.046-.034a1.254,1.254,0,0,0,.1-.086L44.219,41.133,65.454,62.368c.03.03.062.059.1.086.015.012.03.023.046.034s.037.029.056.042.038.023.056.034.034.021.052.031.039.019.059.029l.056.026.059.021.061.021.06.015c.021.005.042.011.063.015l.069.011.057.008c.043,0,.085.006.128.006H81.689V98.92H53.825V80.834a4.072,4.072,0,0,0-4.067-4.067H38.681a4.072,4.072,0,0,0-4.067,4.067V98.92H6.75ZM51.229,82.305H37.21V80.834a1.473,1.473,0,0,1,1.471-1.471H49.758a1.473,1.473,0,0,1,1.471,1.471ZM37.21,84.9h5.711V98.92H37.21Zm8.307,0h5.711V98.92H45.517Z" transform="translate(0 -20)" fill="#e63827"></path>    <path id="Caminho_396" data-name="Caminho 396" d="M209.605,231.211A9.605,9.605,0,1,0,200,221.605,9.616,9.616,0,0,0,209.605,231.211Zm0-16.615a7.009,7.009,0,1,1-7.009,7.009A7.017,7.017,0,0,1,209.605,214.6Z" transform="translate(-165.386 -178.771)" fill="#e63827"></path>    <path id="Caminho_397" data-name="Caminho 397" d="M229.452,242.75a1.3,1.3,0,0,0,1.3-1.3V237.3a1.3,1.3,0,0,0-2.6,0v2.856H225.3a1.3,1.3,0,1,0,0,2.6Z" transform="translate(-185.232 -198.616)" fill="#e63827"></path>    <path id="Caminho_398" data-name="Caminho 398" d="M136.221,388H129.3a1.3,1.3,0,0,0-1.3,1.3v8.307a1.3,1.3,0,0,0,1.3,1.3h6.923a1.3,1.3,0,0,0,1.3-1.3V389.3A1.3,1.3,0,0,0,136.221,388Zm-1.3,2.6v1.558H130.6V390.6Zm-4.327,5.711V394.75h4.327v1.558Z" transform="translate(-105.847 -324.31)" fill="#e63827"></path>    <path id="Caminho_399" data-name="Caminho 399" d="M64.221,388H57.3a1.3,1.3,0,0,0-1.3,1.3v8.307a1.3,1.3,0,0,0,1.3,1.3h6.923a1.3,1.3,0,0,0,1.3-1.3V389.3A1.3,1.3,0,0,0,64.221,388Zm-1.3,2.6v1.558H58.6V390.6ZM58.6,396.307V394.75h4.327v1.558Z" transform="translate(-46.308 -324.31)" fill="#e63827"></path>    <path id="Caminho_400" data-name="Caminho 400" d="M135.788,292h-6.057A1.733,1.733,0,0,0,128,293.731v9.259a1.3,1.3,0,0,0,1.3,1.3h6.923a1.3,1.3,0,0,0,1.3-1.3v-9.259A1.733,1.733,0,0,0,135.788,292Zm-.865,2.6v2.942H130.6V294.6Zm-4.327,7.1v-1.558h4.327v1.558Z" transform="translate(-105.847 -244.925)" fill="#e63827"></path>    <path id="Caminho_401" data-name="Caminho 401" d="M63.788,292H57.731A1.733,1.733,0,0,0,56,293.731v9.259a1.3,1.3,0,0,0,1.3,1.3h6.923a1.3,1.3,0,0,0,1.3-1.3v-9.259A1.733,1.733,0,0,0,63.788,292Zm-.865,2.6v2.942H58.6V294.6Zm-4.327,7.1v-1.558h4.327v1.558Z" transform="translate(-46.308 -244.925)" fill="#e63827"></path>    <path id="Caminho_402" data-name="Caminho 402" d="M401.3,398.9h6.923a1.3,1.3,0,0,0,1.3-1.3V389.3a1.3,1.3,0,0,0-1.3-1.3H401.3a1.3,1.3,0,0,0-1.3,1.3v8.307A1.3,1.3,0,0,0,401.3,398.9Zm1.3-2.6V394.75h4.327v1.558Zm4.327-5.711v1.558H402.6V390.6Z" transform="translate(-330.772 -324.31)" fill="#e63827"></path>    <path id="Caminho_403" data-name="Caminho 403" d="M329.3,398.9h6.923a1.3,1.3,0,0,0,1.3-1.3V389.3a1.3,1.3,0,0,0-1.3-1.3H329.3a1.3,1.3,0,0,0-1.3,1.3v8.307A1.3,1.3,0,0,0,329.3,398.9Zm1.3-2.6V394.75h4.327v1.558Zm4.327-5.711v1.558H330.6V390.6Z" transform="translate(-271.233 -324.31)" fill="#e63827"></path>    <path id="Caminho_404" data-name="Caminho 404" d="M401.3,304.288h6.923a1.3,1.3,0,0,0,1.3-1.3v-9.259A1.733,1.733,0,0,0,407.788,292h-6.057A1.733,1.733,0,0,0,400,293.731v9.259A1.3,1.3,0,0,0,401.3,304.288Zm1.3-2.6v-1.558h4.327v1.558Zm4.327-7.1v2.942H402.6V294.6Z" transform="translate(-330.772 -244.925)" fill="#e63827"></path>    <path id="Caminho_405" data-name="Caminho 405" d="M329.3,304.288h6.923a1.3,1.3,0,0,0,1.3-1.3v-9.259A1.733,1.733,0,0,0,335.788,292h-6.057A1.733,1.733,0,0,0,328,293.731v9.259A1.3,1.3,0,0,0,329.3,304.288Zm1.3-2.6v-1.558h4.327v1.558Zm4.327-7.1v2.942H330.6V294.6Z" transform="translate(-271.233 -244.925)" fill="#e63827"></path>  </svg>