<svg xmlns="http://www.w3.org/2000/svg" width="74.82px" height="74.82px" viewBox="0 0 65.089 76.018"> <g id="Grupo_1323" data-name="Grupo 1323" transform="translate(0 0)"> <g id="Grupo_1322" data-name="Grupo 1322" transform="translate(0)"> <path id="Caminho_435" data-name="Caminho 435" d="M85.547,11.6A32.57,32.57,0,0,0,28.06,32.5a32.606,32.606,0,0,0,38.193,31.84L78.789,75.6a1.624,1.624,0,0,0,2.284-.116,1.6,1.6,0,0,0,.417-1.074V57.233A32.275,32.275,0,0,0,85.547,11.6ZM78.87,55.206a1.605,1.605,0,0,0-.615,1.255V70.777L67.839,61.4a1.622,1.622,0,0,0-1.084-.418h-.323A29.2,29.2,0,1,1,89.324,26.536,29.1,29.1,0,0,1,78.87,55.206Z" transform="translate(-28.06 0)" fill="#f37f1f"></path> </g> </g> <g id="Grupo_1325" data-name="Grupo 1325" transform="translate(16.325 19.959)"> <g id="Grupo_1324" data-name="Grupo 1324"> <path id="Caminho_436" data-name="Caminho 436" d="M138.372,102.285A8.992,8.992,0,0,0,132.21,99.6a10.659,10.659,0,0,0-7.23,3.429,10.659,10.659,0,0,0-7.23-3.429,9.009,9.009,0,0,0-6.179,2.685,8.572,8.572,0,0,0-2.636,7.8c1.084,7.6,9.575,15.56,15.317,18.455a1.617,1.617,0,0,0,1.456,0c5.742-2.9,14.233-10.853,15.3-18.455A8.557,8.557,0,0,0,138.372,102.285Zm-.566,7.311c-.76,5.418-7.23,12.5-12.826,15.641-5.6-3.138-12.066-10.222-12.826-15.641a5.321,5.321,0,0,1,1.617-4.982,5.9,5.9,0,0,1,3.979-1.828c3.235,0,5.887,3.558,5.9,3.591a1.617,1.617,0,0,0,2.636,0s2.653-3.591,5.9-3.591a5.9,5.9,0,0,1,3.979,1.828A5.322,5.322,0,0,1,137.806,109.6Z" transform="translate(-108.805 -99.6)" fill="#f37f1f"></path> </g> </g> </svg>