<svg id="Grupo_1284" data-name="Grupo 1284" xmlns="http://www.w3.org/2000/svg" width="88.44px" height="81.52px" viewBox="0 0 56.406 79.577">  <path id="Caminho_406" data-name="Caminho 406" d="M124.857,52.561V44.277l-3.5,1.36-.01-.023-.083-.151a9,9,0,0,0-5.946-3.979l-8.412-1.531v-.664a12.842,12.842,0,0,0,6.168-8.628,5.136,5.136,0,0,0,4.088-5.021V12.977a8.039,8.039,0,0,0-5.743-7.714l-.641-.641A15.786,15.786,0,0,0,83.834,15.785v9.854a5.136,5.136,0,0,0,4.088,5.021,12.844,12.844,0,0,0,6.168,8.628v.664l-8.411,1.529a9,9,0,0,0-5.943,3.975l-.077.187-3.516-1.368v8.284A3.851,3.851,0,0,0,72.3,56.407v5.128a3.851,3.851,0,0,0,3.846,3.846V70.1L100.5,79.577,124.857,70.1V65.38a3.851,3.851,0,0,0,3.846-3.846V56.407A3.851,3.851,0,0,0,124.857,52.561ZM109.311,43,114.862,44a6.422,6.422,0,0,1,4.047,2.584l-12.4,4.823ZM96.762,40.464a12.772,12.772,0,0,0,7.474,0l-3.737,2.8Zm1.786,4.543-2.617,2.615-1.7-5.091.817-.147Zm7.4-2.622.817.147-1.7,5.091-2.617-2.615Zm7.371-14.539V23.432a2.542,2.542,0,0,1,0,4.415Zm-25.639,0a2.542,2.542,0,0,1,0-4.415Zm0-8.617v1.464a5.084,5.084,0,0,0-1.282.531V15.785a13.221,13.221,0,0,1,22.57-9.348L110.1,7.569l.345.085a5.479,5.479,0,0,1,4.157,5.324v8.247a5.038,5.038,0,0,0-1.282-.531V19.23h-4.065a11.151,11.151,0,0,1-8.878-4.437l-1.019-1.361L96.81,15.98a11.03,11.03,0,0,1-7.848,3.25ZM90.244,28.2V21.734a13.569,13.569,0,0,0,8.379-3.942l.5-.5a13.732,13.732,0,0,0,10.133,4.5h1.5V28.2a10.256,10.256,0,1,1-20.511,0ZM86.136,44,91.687,43l2.8,8.416L82.086,46.588A6.421,6.421,0,0,1,86.136,44ZM74.86,61.534V56.407a1.283,1.283,0,0,1,1.282-1.282,3.846,3.846,0,1,1,0,7.692A1.283,1.283,0,0,1,74.86,61.534ZM99.217,76.326,78.706,68.351V64.837a6.4,6.4,0,0,0,0-11.733V48.025L99.217,56ZM95.411,51.771l5.088-5.089,5.088,5.088L100.5,53.749Zm26.882,16.578-20.511,7.975V56l20.511-7.976V53.1a6.4,6.4,0,0,0,0,11.733Zm3.846-6.815a1.283,1.283,0,0,1-1.282,1.282,3.846,3.846,0,0,1,0-7.692,1.283,1.283,0,0,1,1.282,1.282Z" transform="translate(-72.296)" fill="#e63827"></path></svg>