<svg xmlns="http://www.w3.org/2000/svg" width="41.84px" height="37.65px" viewBox="0 0 38.689 50.203"> <path id="Caminho_999" data-name="Caminho 999" d="M41.194,14.643a5.231,5.231,0,0,0-5.23-5.23,5.719,5.719,0,0,0-1.046.1V8.367a5.231,5.231,0,0,0-5.23-5.23,5.152,5.152,0,0,0-1.4.188,5.23,5.23,0,0,0-10.02.983,4.919,4.919,0,0,0-1.13-.126,5.231,5.231,0,0,0-5.23,5.23V21.734a6.071,6.071,0,0,0-2.552-1.381l-1.611-.439A4.125,4.125,0,0,0,3.165,21.65a4.458,4.458,0,0,0-.314,4.079L8.206,39.18A17.475,17.475,0,0,0,24.459,50.2h0A16.73,16.73,0,0,0,41.194,33.469ZM37.01,33.469A12.561,12.561,0,0,1,24.459,46.02h0A13.292,13.292,0,0,1,12.1,37.632L6.658,23.951l1.109.293a3.092,3.092,0,0,1,2.092,1.883l2.05,5.25h4.184V9.413a1.046,1.046,0,0,1,2.092,0V25.1h4.184V5.23a1.046,1.046,0,0,1,2.092,0V25.1h4.184V8.367a1.046,1.046,0,1,1,2.092,0V25.1h4.184V14.643a1.046,1.046,0,0,1,2.092,0Z" transform="translate(-2.504)" fill="#e63827"></path> </svg>