<svg xmlns="http://www.w3.org/2000/svg" width="74.82px" height="74.82px" viewBox="0 0 55.471 67.786"> <g id="Grupo_2504" data-name="Grupo 2504" transform="translate(-370.538 -207.951)"> <path id="Caminho_988" data-name="Caminho 988" d="M388.275,223.965c4.572,3.019,5.139,10.77,5.139,10.77s-6.529,2.937-11.1-.08-9.777-13.769-9.777-13.769S383.7,220.946,388.275,223.965Z" transform="translate(0 4.77)" fill="none" stroke="#2bb19d" stroke-miterlimit="10" stroke-width="2.5"></path> <path id="Caminho_989" data-name="Caminho 989" d="M393.642,238.755c-4.241-4.966-3.712-13.667-1.255-17.128,6.57-9.261,15.579-6.554,22.718-11.8,3.733,7.325,1.718,19.194-4.424,26.481-4.135,4.907-9.761,4.254-12.6,3.506" transform="translate(7.748)" fill="none" stroke="#2bb19d" stroke-miterlimit="10" stroke-width="2.5"></path> <path id="Caminho_990" data-name="Caminho 990" d="M390.768,244.222c1.443-14.845,11.547-20.422,18.288-26.985" transform="translate(7.865 3.196)" fill="none" stroke="#2bb19d" stroke-miterlimit="10" stroke-width="2.5"></path> <path id="Caminho_991" data-name="Caminho 991" d="M380,244l4.294,15.745h22.9L411.491,244" transform="translate(3.22 14.742)" fill="none" stroke="#2bb19d" stroke-miterlimit="10" stroke-width="2.5"></path> <path id="Caminho_992" data-name="Caminho 992" d="M403.765,247.02h11.451V237H378v10.02h21.471" transform="translate(2.357 11.722)" fill="none" stroke="#2bb19d" stroke-miterlimit="10" stroke-width="2.5"></path> </g> </svg>