<svg xmlns="http://www.w3.org/2000/svg" width="74.82px" height="74.82px" viewBox="0 0 74.824 74.824">  <g id="Grupo_1287" data-name="Grupo 1287">    <g id="Grupo_1286" data-name="Grupo 1286">      <path id="Caminho_407" data-name="Caminho 407" d="M73.577,0H1.247A1.247,1.247,0,0,0,0,1.246H0V26.188H2.494V2.494H72.33V29.929H28.682v2.494H73.577a1.247,1.247,0,0,0,1.247-1.246h0V1.247A1.247,1.247,0,0,0,73.577,0Z" transform="translate(0 0)" fill="#e63827"></path>    </g>  </g>  <g id="Grupo_1295" data-name="Grupo 1295" transform="translate(0 4.988)">    <g id="Grupo_1294" data-name="Grupo 1294">      <path id="Caminho_408" data-name="Caminho 408" d="M39.807,37.764a4.024,4.024,0,0,0-5.262-2.17l-.1.045L24.329,40.884a6.166,6.166,0,0,0,.613-2.649A6.235,6.235,0,1,0,13.75,41.976H13.7a8.558,8.558,0,0,0-7.949,5.536L2.419,58.987a3.994,3.994,0,1,0,7.5,2.747l1.3-4.15V75.633a6.217,6.217,0,0,0-8.092,9.409A5.745,5.745,0,0,0,0,90.138v10.45a1.247,1.247,0,0,0,1.246,1.247H13.718a1.247,1.247,0,0,0,1.247-1.246h0V90.138a5.732,5.732,0,0,0-2.225-4.515h9.439a5.731,5.731,0,0,0-2.225,4.515v10.45a1.247,1.247,0,0,0,1.246,1.247H33.671a1.247,1.247,0,0,0,1.247-1.246h0V90.138a5.745,5.745,0,0,0-3.131-5.1,6.23,6.23,0,0,0-5.6-10.562V48.969l11.448-5.944A4.024,4.024,0,0,0,39.807,37.764Zm-21.1-3.269a3.741,3.741,0,1,1-3.741,3.741A3.741,3.741,0,0,1,18.706,34.494ZM7.482,76.848a3.741,3.741,0,1,1-3.741,3.741A3.741,3.741,0,0,1,7.482,76.848Zm4.988,22.493H2.494v-9.2a3.272,3.272,0,0,1,3.268-3.267H9.2a3.272,3.272,0,0,1,3.268,3.267Zm19.953-9.2v9.2H22.447v-9.2a3.272,3.272,0,0,1,3.268-3.267h3.44A3.272,3.272,0,0,1,32.424,90.138Zm-4.988-13.29a3.741,3.741,0,1,1-3.741,3.741A3.745,3.745,0,0,1,27.435,76.848Zm10.089-37a1.6,1.6,0,0,1-.941.923L24.367,47.1a1.247,1.247,0,0,0-.673,1.107V75.633a6.151,6.151,0,0,0-1.94,7.5h-1.8v-21.2H17.459v21.2H13.164a6.178,6.178,0,0,0,.549-2.494h0V49.459a1.247,1.247,0,0,0-2.437-.374L7.557,60.934a1.5,1.5,0,0,1-2.08.829,1.531,1.531,0,0,1-.7-1.98L8.109,48.309A6.025,6.025,0,0,1,13.7,44.471h8.83a1.242,1.242,0,0,0,.574-.14L35.5,37.9a1.535,1.535,0,0,1,1.963.727A1.517,1.517,0,0,1,37.525,39.844Z" transform="translate(0 -32)" fill="#e63827"></path>    </g>  </g></svg>