<svg xmlns="http://www.w3.org/2000/svg" xmlns:xlink="http://www.w3.org/1999/xlink" width="88.44px" height="81.52px" viewBox="0 0 81 81"> <defs> <clipPath id="clip-path"> <rect id="Retângulo_2500" data-name="Retângulo 2500" width="81" height="81" fill="none" stroke="#2bb19d" stroke-width="2.5"></rect> </clipPath> </defs> <g id="Grupo_2487" data-name="Grupo 2487" clip-path="url(#clip-path)"> <g id="Grupo_2486" data-name="Grupo 2486" transform="translate(2.544 8.903)"> <path id="Caminho_962" data-name="Caminho 962" d="M810.743,1172.934l-.268.081" transform="translate(-756.587 -1138.614)" fill="none" stroke="#2bb19d" stroke-linecap="round" stroke-linejoin="round" stroke-width="2.5"></path> <path id="Caminho_963" data-name="Caminho 963" d="M766.121,1187.371a33.665,33.665,0,0,0-5.121,3.57" transform="translate(-722.844 -1148.461)" fill="none" stroke="#2bb19d" stroke-linecap="round" stroke-linejoin="round" stroke-width="2.5"></path> <path id="Caminho_964" data-name="Caminho 964" d="M811.317,1167.523A69.041,69.041,0,0,1,823.068,1165" transform="translate(-757.161 -1133.203)" fill="none" stroke="#2bb19d" stroke-linecap="round" stroke-linejoin="round" stroke-width="2.5"></path> <line id="Linha_77" data-name="Linha 77" y1="5.596" transform="translate(76.313 47.823)" fill="none" stroke="#2bb19d" stroke-linecap="round" stroke-linejoin="round" stroke-width="2.5"></line> <path id="Caminho_965" data-name="Caminho 965" d="M799.156,1233v5.088s-22.894-1.272-34.341,8.9H761" transform="translate(-722.844 -1179.581)" fill="none" stroke="#2bb19d" stroke-linecap="round" stroke-linejoin="round" stroke-width="2.5"></path> <path id="Caminho_966" data-name="Caminho 966" d="M781,1222.266c12.141-7.123,31.8-6.868,31.8-6.868" transform="translate(-736.484 -1167.575)" fill="none" stroke="#2bb19d" stroke-linecap="round" stroke-linejoin="round" stroke-width="2.5"></path> <line id="Linha_78" data-name="Linha 78" x2="10.406" y2="16.026" transform="translate(65.907 31.797)" fill="none" stroke="#2bb19d" stroke-linecap="round" stroke-linejoin="round" stroke-width="2.5"></line> <path id="Caminho_967" data-name="Caminho 967" d="M673.728,1165s1.624.168,4.169.653" transform="translate(-663.322 -1133.203)" fill="none" stroke="#2bb19d" stroke-linecap="round" stroke-linejoin="round" stroke-width="2.5"></path> <path id="Caminho_968" data-name="Caminho 968" d="M679.156,1246.991h-3.816c-10.175-10.175-34.341-8.9-34.341-8.9V1233" transform="translate(-641 -1179.581)" fill="none" stroke="#2bb19d" stroke-linecap="round" stroke-linejoin="round" stroke-width="2.5"></path> <line id="Linha_79" data-name="Linha 79" y2="5.596" transform="translate(0 47.823)" fill="none" stroke="#2bb19d" stroke-linecap="round" stroke-linejoin="round" stroke-width="2.5"></line> <path id="Caminho_969" data-name="Caminho 969" d="M686.839,1146.556c2.527-4.951,4.5-9.556,4.5-9.556s17.806,8.9,19.078,19.078" transform="translate(-672.264 -1114.106)" fill="none" stroke="#2bb19d" stroke-linecap="round" stroke-linejoin="round" stroke-width="2.5"></path> <path id="Caminho_970" data-name="Caminho 970" d="M655.576,1167.053c-.988,1.934-2.056,3.92-3.129,5.707,7.631,2.544,20.35,16.534,20.35,16.534-12.141-7.123-31.8-6.868-31.8-6.868" transform="translate(-641 -1134.603)" fill="none" stroke="#2bb19d" stroke-linecap="round" stroke-linejoin="round" stroke-width="2.5"></path> <line id="Linha_80" data-name="Linha 80" x1="10.406" y2="16.026" transform="translate(0 31.797)" fill="none" stroke="#2bb19d" stroke-linecap="round" stroke-linejoin="round" stroke-width="2.5"></line> <path id="Caminho_971" data-name="Caminho 971" d="M670.253,1238.088C661.35,1233,641,1233,641,1233" transform="translate(-641 -1179.581)" fill="none" stroke="#2bb19d" stroke-linecap="round" stroke-linejoin="round" stroke-width="2.5"></path> <path id="Caminho_972" data-name="Caminho 972" d="M789,1238.088c8.9-5.088,29.253-5.088,29.253-5.088" transform="translate(-741.94 -1179.581)" fill="none" stroke="#2bb19d" stroke-linecap="round" stroke-linejoin="round" stroke-width="2.5"></path> <line id="Linha_81" data-name="Linha 81" x1="7.142" y1="1.914" transform="translate(46.746 32.487)" fill="none" stroke="#2bb19d" stroke-linecap="round" stroke-linejoin="round" stroke-width="2.5"></line> <line id="Linha_82" data-name="Linha 82" x1="0.23" y1="0.061" transform="translate(53.888 34.401)" fill="none" stroke="#2bb19d" stroke-linecap="round" stroke-linejoin="round" stroke-width="2.5"></line> <line id="Linha_83" data-name="Linha 83" x1="7.371" y1="1.975" transform="translate(53.988 5.459)" fill="none" stroke="#2bb19d" stroke-linecap="round" stroke-linejoin="round" stroke-width="2.5"></line> <line id="Linha_84" data-name="Linha 84" x1="0.038" y2="0.143" transform="translate(54.118 34.32)" fill="none" stroke="#2bb19d" stroke-linecap="round" stroke-linejoin="round" stroke-width="2.5"></line> <line id="Linha_85" data-name="Linha 85" y1="26.885" x2="7.204" transform="translate(54.156 7.434)" fill="none" stroke="#2bb19d" stroke-linecap="round" stroke-linejoin="round" stroke-width="2.5"></line> <path id="Caminho_973" data-name="Caminho 973" d="M795.257,1082.169l-1.975,7.371-5.267,19.657" transform="translate(-741.268 -1076.71)" fill="none" stroke="#2bb19d" stroke-linecap="round" stroke-linejoin="round" stroke-width="2.5"></path> <line id="Linha_86" data-name="Linha 86" x1="0.868" y1="4.243" transform="translate(46.746 32.487)" fill="none" stroke="#2bb19d" stroke-linecap="round" stroke-linejoin="round" stroke-width="2.5"></line> <path id="Caminho_974" data-name="Caminho 974" d="M790.745,1175.65l.842,4.116,5.661-6.384" transform="translate(-743.131 -1138.92)" fill="none" stroke="#2bb19d" stroke-linecap="round" stroke-linejoin="round" stroke-width="2.5"></path> <path id="Caminho_975" data-name="Caminho 975" d="M818.162,1072.435l.858-3.2a3.044,3.044,0,0,0-2.153-3.729l-1.49-.4a3.044,3.044,0,0,0-3.729,2.153l-.858,3.2" transform="translate(-756.803 -1065)" fill="none" stroke="#2bb19d" stroke-linecap="round" stroke-linejoin="round" stroke-width="2.5"></path> </g> <line id="Linha_87" data-name="Linha 87" y2="9" transform="translate(41 52)" fill="none" stroke="#2bb19d" stroke-linecap="round" stroke-linejoin="round" stroke-width="2.5"></line> </g> </svg>