<svg id="Grupo_2552" data-name="Grupo 2552" xmlns="http://www.w3.org/2000/svg" width="41.84px" height="37.65px" viewBox="0 0 43.928 42.882"> <g id="Grupo_2551" data-name="Grupo 2551"> <g id="Grupo_2550" data-name="Grupo 2550"> <path id="Caminho_997" data-name="Caminho 997" d="M22.551,25.01C29.015,19.132,35.1,13.63,35.1,8.9A6.831,6.831,0,0,0,28.2,2a7.566,7.566,0,0,0-5.648,2.615A7.6,7.6,0,0,0,16.9,2,6.831,6.831,0,0,0,10,8.9C10,13.63,16.087,19.132,22.551,25.01ZM16.9,6.184a3.326,3.326,0,0,1,2.468,1.15l3.18,3.744,3.18-3.744A3.326,3.326,0,0,1,28.2,6.184,2.662,2.662,0,0,1,30.918,8.9c0,2.343-4.267,6.631-8.367,10.438-4.1-3.807-8.367-8.116-8.367-10.438A2.662,2.662,0,0,1,16.9,6.184Z" transform="translate(8.826 -2)" fill="#e63827"></path> <path id="Caminho_998" data-name="Caminho 998" d="M38.653,21.459H34.469a6.046,6.046,0,0,0-3.912-5.648L17.672,11H1V34.01H13.551V31l14.643,4.058,16.734-5.23V27.734A6.267,6.267,0,0,0,38.653,21.459ZM5.184,29.826V15.184H9.367V29.826Zm22.947.858-14.58-4.037V15.184h3.368l12.174,4.539a1.862,1.862,0,0,1,1.192,1.736,46.069,46.069,0,0,1-4.811-.314L20.5,19.493l-1.318,3.974,4.979,1.653a10.425,10.425,0,0,0,3.305.544H38.653a2.108,2.108,0,0,1,1.883,1.171Z" transform="translate(-1 7.826)" fill="#e63827"></path> </g> </g> </svg>