<svg xmlns="http://www.w3.org/2000/svg" width="88.44px" height="81.52px" viewBox="0 0 72.25 72.25"> <circle id="Elipse_122" data-name="Elipse 122" cx="6" cy="6" r="6" transform="translate(29.125 20.125)" fill="none" stroke="#2bb19d" stroke-linecap="round" stroke-linejoin="round" stroke-width="2.5"></circle> <path id="Caminho_958" data-name="Caminho 958" d="M2032.75,732.125V699.5h0a47.438,47.438,0,0,0,6.636-3.331,7.212,7.212,0,0,0,3.489-6.195V679.813a2.812,2.812,0,0,0-2.812-2.812h0a2.812,2.812,0,0,0-2.812,2.813v7.834a4.306,4.306,0,0,1-3.031,4.137,24.528,24.528,0,0,1-7.094.966c-4.97,0-10.125,2.25-10.125,9v3.97a9.427,9.427,0,0,0,2.761,6.666l1.739,1.739v18" transform="translate(-1992.125 -661.125)" fill="none" stroke="#2bb19d" stroke-linecap="round" stroke-linejoin="round" stroke-width="2.5"></path> <ellipse id="Elipse_123" data-name="Elipse 123" cx="5.5" cy="6" rx="5.5" ry="6" transform="translate(5.125 20.125)" fill="none" stroke="#2bb19d" stroke-linecap="round" stroke-linejoin="round" stroke-width="2.5"></ellipse> <path id="Caminho_959" data-name="Caminho 959" d="M1936.6,772.375v-18l-1.391-1.739A10.737,10.737,0,0,1,1933,745.97V742c0-6.75,4.124-9,8.1-9h1.8c3.976,0,8.1,2.25,8.1,9v3.97a10.737,10.737,0,0,1-2.209,6.666l-1.391,1.739v18" transform="translate(-1931.75 -701.375)" fill="none" stroke="#2bb19d" stroke-linecap="round" stroke-linejoin="round" stroke-width="2.5"></path> <circle id="Elipse_124" data-name="Elipse 124" cx="6" cy="6" r="6" transform="translate(56.125 20.125)" fill="none" stroke="#2bb19d" stroke-linecap="round" stroke-linejoin="round" stroke-width="2.5"></circle> <path id="Caminho_960" data-name="Caminho 960" d="M2120.6,772.374v-18l-1.391-1.739a10.738,10.738,0,0,1-2.209-6.666V742c0-6.75,4.123-9,8.1-9h1.8c3.976,0,8.1,2.25,8.1,9v3.97a10.736,10.736,0,0,1-2.209,6.666l-1.391,1.739v18" transform="translate(-2064 -701.374)" fill="none" stroke="#2bb19d" stroke-linecap="round" stroke-linejoin="round" stroke-width="2.5"></path> <path id="Caminho_961" data-name="Caminho 961" d="M1993,634v-5.625a3.375,3.375,0,0,1,3.375-3.375h16.875a3.375,3.375,0,0,1,3.375,3.375V634a3.375,3.375,0,0,1-3.375,3.375h-13.5l1.125,6.75-5.312-4.553A7.338,7.338,0,0,1,1993,634Z" transform="translate(-1974.875 -623.75)" fill="none" stroke="#2bb19d" stroke-linecap="round" stroke-linejoin="round" stroke-width="2.5"></path> </svg>