<?xml version="1.0" encoding="UTF-8"?>
<svg id="Layer_1" data-name="Layer 1" xmlns="http://www.w3.org/2000/svg" version="1.1" viewBox="0 0 1730.6 1545">
  <defs>
    <style>
      .cls-1 {
        fill: #21438e;
        stroke-width: 0px;
      }
    </style>
  </defs>
  <g id="Grupo_1287" data-name="Grupo 1287">
    <g id="Grupo_1286" data-name="Grupo 1286">
      <path id="Caminho_407" data-name="Caminho 407" class="cls-1" d="M1578.3,34.9H152.3c-13.6,0-24.6,11-24.6,24.6h0v491.7h49.2V84.1h1376.8v540.9h-860.5v49.2h885.1c13.6,0,24.6-11,24.6-24.6h0V59.5c0-13.6-11-24.6-24.6-24.6h0Z"/>
    </g>
  </g>
  <g id="Grupo_1295" data-name="Grupo 1295">
    <g id="Grupo_1294" data-name="Grupo 1294">
      <path id="Caminho_408" data-name="Caminho 408" class="cls-1" d="M912.5,246.9c-16.8-40.5-63.3-59.6-103.7-42.8,0,0,0,0,0,0l-2,.9-199.4,103.4c7.9-16.3,12-34.1,12.1-52.2.4-67.9-54.2-123.3-122.1-123.7-67.9-.4-123.3,54.2-123.7,122.1-.2,27.2,8.7,53.7,25.2,75.4h-1c-69.8.5-132.1,43.9-156.7,109.1l-65.7,226.2c-15.5,40.6,4.8,86.1,45.5,101.7,40.6,15.5,86.1-4.8,101.7-45.5.3-.7.5-1.4.7-2l25.6-81.8v355.8c-54-40.9-130.8-30.3-171.7,23.7-37.3,49.3-32.1,118.7,12.2,161.8-37.7,19.3-61.5,58.1-61.6,100.5v206c0,13.6,11,24.6,24.6,24.6h245.9c13.6,0,24.6-11,24.6-24.6h0v-206c-.1-34.8-16.3-67.7-43.9-89h186.1c-27.6,21.3-43.8,54.2-43.9,89v206c0,13.6,11,24.6,24.6,24.6h245.9c13.6,0,24.6-11,24.6-24.6h0v-206c-.1-42.4-23.9-81.2-61.7-100.5,48.5-47.4,49.5-125.1,2.1-173.7-29.2-29.9-71.6-42.9-112.5-34.5v-502.9l225.7-117.2c40.5-16.8,59.6-63.2,42.8-103.7,0,0,0,0,0,0ZM496.5,182.5c40.7,0,73.8,33,73.8,73.8s-33,73.8-73.8,73.8-73.8-33-73.8-73.8c0-40.7,33-73.8,73.7-73.8h0ZM275.2,1017.4c40.7,0,73.8,33,73.8,73.8s-33,73.8-73.8,73.8-73.8-33-73.8-73.8h0c0-40.7,33-73.8,73.8-73.8ZM373.6,1460.9h-196.7v-181.4c0-35.6,28.9-64.4,64.4-64.4h67.8c35.6,0,64.4,28.9,64.4,64.4v181.4ZM766.9,1279.5v181.4h-196.7v-181.4c0-35.6,28.9-64.4,64.4-64.4h67.8c35.5,0,64.4,28.8,64.4,64.3h0ZM668.6,1017.5c40.7,0,73.8,33,73.8,73.8s-33,73.8-73.8,73.8-73.8-33-73.8-73.8h0c0-40.7,33-73.8,73.8-73.8h0ZM867.5,288.1c-3.3,8.4-10,15.1-18.6,18.2l-240.8,124.7c-8.2,4.2-13.3,12.6-13.3,21.8v540.7c-46.1,34.1-62,95.7-38.2,147.9h-35.5v-418h-49.2v418h-84.7c7-15.5,10.7-32.2,10.8-49.2h0V477.5c0-13.6-11-24.6-24.6-24.6-10.8,0-20.3,7-23.5,17.2l-73.3,233.6c-5.6,15.3-22.6,23.3-37.9,17.7-1.1-.4-2.1-.8-3.1-1.3-14.2-7.3-20.3-24.4-13.8-39l65.7-226.2c17.7-45.5,61.4-75.5,110.2-75.7h174.1c3.9,0,7.8-.9,11.3-2.8l244.4-126.8c14.7-6.1,31.6.1,38.7,14.3,3.7,7.5,4.2,16.2,1.2,24h0Z"/>
    </g>
  </g>
</svg>