<?xml version="1.0" encoding="UTF-8"?>
<svg id="Layer_1" data-name="Layer 1" xmlns="http://www.w3.org/2000/svg" version="1.1" viewBox="0 0 1730.6 1545">
  <defs>
    <style>
      .cls-1 {
        fill: #21438e;
        stroke-width: 0px;
      }
    </style>
  </defs>
  <path id="Caminho_395" data-name="Caminho 395" class="cls-1" d="M1594.3,1420.6h-48.5v-614.4h48.5c12.2,0,22.1-9.9,22.1-22.1,0-4.2-1.2-8.3-3.4-11.8l-164.6-258.7c-4.1-6.4-11.1-10.2-18.7-10.2h-437.7l-104.7-104.7v-86.4h213.1c12.2,0,22.1-9.9,22-22.1,0-4.3-1.3-8.5-3.7-12.1l-38.9-58.3,38.9-58.3c6.7-10.2,4-23.9-6.2-30.6-3.6-2.4-7.8-3.7-12.1-3.7h-213.1v-25c0-12.2-9.9-22.1-22.1-22.1-12.2,0-22,9.9-22.1,22.1v296.6l-104.7,104.7h-437.6c-7.6,0-14.6,3.8-18.7,10.2l-164.6,258.7c-6.5,10.3-3.5,23.9,6.9,30.5,3.5,2.2,7.6,3.4,11.8,3.4h48.5v614.4h-48.5c-12.2,0-22.1,9.9-22.1,22.1,0,12.2,9.9,22.1,22.1,22.1h1458c12.2,0,22.1-9.9,22.1-22.1,0-12.2-9.9-22.1-22.1-22.1h0ZM1417.6,547.6l136.6,214.6h-303.5l-214.6-214.6h381.6ZM1059.2,171.3l-24.2,36.3c-4.9,7.4-4.9,17.1,0,24.5l24.2,36.3h-171.9v-97h171.9ZM312.9,547.6h381.5l-214.5,214.6H176.4l136.5-214.6ZM228.8,806.3h260.1c.7,0,1.5,0,2.2-.1h.9c.4-.1.8-.2,1.2-.3s.7-.2,1.1-.3l1-.3,1-.4,1-.4.9-.4c.3-.2.7-.3,1-.5l.9-.5c.3-.2.6-.4,1-.6s.6-.5,1-.7.5-.4.8-.6c.6-.5,1.2-.9,1.7-1.5l360.6-360.6,360.7,360.7c.5.5,1.1,1,1.7,1.5.3.2.5.4.8.6s.6.5,1,.7.6.4,1,.6.6.4.9.5.7.3,1,.5l1,.4,1,.4,1,.4,1,.3c.4,0,.7.2,1.1.3l1.2.2h1c.7.1,1.4.2,2.2.2h260.1v614.4h-473.3v-307.2c0-38.1-30.9-69-69.1-69.1h-188.1c-38.1,0-69,30.9-69.1,69.1v307.2H228.8v-614.4ZM984.3,1138.4h-238.1v-25c0-13.8,11.2-25,25-25h188.1c13.8,0,25,11.2,25,25v25ZM746.2,1182.5h97v238.1h-97v-238.1ZM887.3,1182.5h97v238.1h-97v-238.1Z"/>
  <path id="Caminho_396" data-name="Caminho 396" class="cls-1" d="M865.3,970.9c90.1,0,163.1-73,163.1-163.1,0-90.1-73-163.1-163.1-163.1-90.1,0-163.1,73-163.1,163.1,0,90.1,73.1,163.1,163.1,163.2ZM865.3,688.7c65.7,0,119,53.3,119,119s-53.3,119-119,119-119-53.3-119-119c.1-65.7,53.4-118.9,119-119h0Z"/>
  <path id="Caminho_397" data-name="Caminho 397" class="cls-1" d="M865.3,829.8c12.2,0,22.1-9.9,22.1-22.1h0v-70.5c0-12.2-9.9-22.1-22.1-22.1s-22.1,9.9-22.1,22.1v48.5h-48.4c-12.2,0-22.1,9.9-22.1,22.1s9.9,22.1,22.1,22.1h70.5Z"/>
  <path id="Caminho_398" data-name="Caminho 398" class="cls-1" d="M630.1,1162h-117.6c-12.2,0-22.1,9.9-22.1,22.1v141.1c0,12.2,9.9,22.1,22.1,22.1h117.6c12.2,0,22.1-9.9,22.1-22.1v-141.1c0-12.2-9.9-22.1-22.1-22.1h0ZM608,1206.1v26.5h-73.4v-26.5h73.4ZM534.5,1303.1v-26.5h73.5v26.5h-73.5Z"/>
  <path id="Caminho_399" data-name="Caminho 399" class="cls-1" d="M418.4,1162h-117.6c-12.2,0-22.1,9.9-22.1,22.1v141.1c0,12.2,9.9,22.1,22.1,22.1h117.6c12.2,0,22.1-9.9,22.1-22.1v-141.1c0-12.2-9.9-22.1-22.1-22.1h0ZM396.4,1206.1v26.5h-73.4v-26.5h73.4ZM323,1303v-26.4h73.5v26.5h-73.5Z"/>
  <path id="Caminho_400" data-name="Caminho 400" class="cls-1" d="M622.7,879.7h-102.9c-16.2,0-29.4,13.2-29.4,29.4v157.3c0,12.2,9.9,22.1,22.1,22.1h117.6c12.2,0,22.1-9.9,22.1-22.1v-157.3c0-16.3-13.2-29.4-29.5-29.4h0ZM608.1,923.9v50h-73.4v-50h73.4ZM534.6,1044.5v-26.5h73.5v26.5h-73.5Z"/>
  <path id="Caminho_401" data-name="Caminho 401" class="cls-1" d="M411.1,879.7h-102.9c-16.2,0-29.4,13.2-29.4,29.4v157.3c0,12.2,9.9,22.1,22.1,22.1h117.6c12.2,0,22.1-9.9,22.1-22.1v-157.3c0-16.3-13.2-29.4-29.5-29.4ZM396.4,923.9v50h-73.4v-50h73.4ZM322.9,1044.5v-26.5h73.5v26.5h-73.5Z"/>
  <path id="Caminho_402" data-name="Caminho 402" class="cls-1" d="M1312.1,1347.1h117.6c12.2,0,22.1-9.9,22.1-22.1v-141c0-12.2-9.9-22.1-22.1-22.1h-117.6c-12.2,0-22.1,9.9-22.1,22.1v141.1c0,12.1,9.9,22,22.1,22ZM1334.2,1302.9v-26.3h73.5v26.5h-73.5ZM1407.7,1205.9v26.5h-73.5v-26.3l73.5-.2Z"/>
  <path id="Caminho_403" data-name="Caminho 403" class="cls-1" d="M1100.5,1347.1h117.6c12.2,0,22.1-9.9,22.1-22.1v-141c0-12.2-9.9-22.1-22.1-22.1h-117.6c-12.2,0-22.1,9.9-22.1,22.1v141.1c0,12.1,9.9,22,22.1,22ZM1122.5,1302.9v-26.3h73.5v26.5h-73.5ZM1196,1205.9v26.5h-73.5v-26.3l73.5-.2Z"/>
  <path id="Caminho_404" data-name="Caminho 404" class="cls-1" d="M1312.1,1088.5h117.6c12.2,0,22.1-9.9,22.1-22.1v-157.3c0-16.2-13.2-29.4-29.5-29.4h-102.9c-16.2,0-29.4,13.2-29.4,29.4v157.3c0,12.2,9.9,22,22.1,22ZM1334.2,1044.3v-26.5h73.5v26.5h-73.5ZM1407.7,923.7v50h-73.5v-49.8l73.5-.2Z"/>
  <path id="Caminho_405" data-name="Caminho 405" class="cls-1" d="M1100.5,1088.5h117.6c12.2,0,22.1-9.9,22.1-22.1v-157.3c0-16.2-13.2-29.4-29.5-29.4h-102.9c-16.2,0-29.4,13.2-29.4,29.4v157.3c0,12.2,9.9,22,22.1,22ZM1122.5,1044.3v-26.5h73.5v26.5h-73.5ZM1196,923.7v50h-73.5v-49.8l73.5-.2Z"/>
</svg>