<?xml version="1.0" encoding="UTF-8"?>
<svg id="Layer_1" data-name="Layer 1" xmlns="http://www.w3.org/2000/svg" version="1.1" viewBox="0 0 1730.6 1545">
  <defs>
    <style>
      .cls-1 {
        fill: #21438e;
        stroke-width: 0px;
      }
    </style>
  </defs>
  <path id="Caminho_406" data-name="Caminho 406" class="cls-1" d="M1324.2,1013.2v-156.1l-66,25.6-.2-.4-1.6-2.8c-25.4-39.4-65.9-66.5-112-75l-158.5-28.8v-12.5c60.4-34.9,102.7-94.2,116.2-162.6,44.8-9.3,77-48.8,77-94.6v-238.6c0-67.1-43.9-126.2-108.2-145.4l-12.1-12.1c-116.2-116.1-304.6-116-420.7.2-55.7,55.8-87,131.4-87,210.2v185.7c0,45.8,32.2,85.3,77,94.6,13.5,68.4,55.9,127.7,116.2,162.6v12.5l-158.5,28.8c-46.1,8.4-86.6,35.5-112,74.9l-1.5,3.5-66.3-25.8v156.1c-40,0-72.4,32.5-72.4,72.5v96.6c0,40,32.5,72.4,72.5,72.5v88.9l458.9,178.6,459-178.6v-88.9c40,0,72.4-32.5,72.5-72.5v-96.6c0-40-32.5-72.4-72.5-72.5ZM1031.3,833l104.6,18.8c30.8,5.8,58.1,23.2,76.3,48.7l-233.7,90.9,52.8-158.4ZM794.8,785.2c45.9,14,94.9,14,140.8,0l-70.4,52.8-70.4-52.8ZM828.5,870.8l-49.3,49.3-32-95.9,15.4-2.8,66,49.4ZM967.9,821.4l15.4,2.8-32,95.9-49.3-49.3,66-49.4ZM1106.8,547.4v-83.2c23,13.1,31,42.4,17.8,65.3-4.2,7.4-10.4,13.6-17.8,17.8h0ZM623.7,547.4c-23-13.1-31-42.4-17.8-65.3,4.2-7.4,10.4-13.6,17.8-17.8v83.2ZM623.7,385.1v27.6c-8.5,2.2-16.6,5.6-24.2,10v-102.5c0-137.6,111.5-249.1,249.1-249.1,66.1,0,129.4,26.3,176.2,73l21.3,21.3,6.5,1.6c46.1,11.5,78.4,52.9,78.3,100.3v155.4c-7.6-4.4-15.7-7.8-24.2-10v-27.6h-76.6c-65.8-.1-127.7-31.1-167.3-83.6l-19.2-25.6-48,48c-39.1,39.3-92.4,61.4-147.9,61.2h-24.2ZM672,554.1v-121.8c59.7-5.5,115.6-31.8,157.9-74.3l9.4-9.4c48.9,53.8,118.2,84.6,190.9,84.8h28.3v120.8c1.1,106.7-84.6,194.1-191.3,195.2-106.7,1.1-194.1-84.6-195.2-191.3,0-1.3,0-2.5,0-3.8h0ZM594.6,851.8l104.6-18.8,52.8,158.6-233.7-91c18.2-25.5,45.5-43,76.3-48.8ZM382.1,1182.2v-96.6c0-13.3,10.8-24.1,24.2-24.2,40,0,72.5,32.4,72.5,72.5s-32.4,72.5-72.5,72.5c-13.3,0-24.2-10.8-24.2-24.2ZM841.1,1461l-386.5-150.3v-66.2c61.1-26.6,89-97.7,62.3-158.8-12.2-27.9-34.4-50.2-62.3-62.3v-95.7l386.5,150.3v383ZM769.4,998.3l95.9-95.9,95.9,95.9-95.9,37.3-95.9-37.3ZM1275.9,1310.7l-386.5,150.3v-383l386.5-150.3v95.7c-61.1,26.6-89,97.7-62.3,158.8,12.2,27.9,34.4,50.2,62.3,62.3v66.3ZM1348.4,1182.2c0,13.3-10.8,24.1-24.2,24.2-40,0-72.5-32.4-72.5-72.5s32.4-72.5,72.5-72.5h0c13.3,0,24.1,10.8,24.2,24.2v96.6Z"/>
</svg>