<?xml version="1.0" encoding="utf-8"?>
<!-- Generator: Adobe Illustrator 27.4.1, SVG Export Plug-In . SVG Version: 6.00 Build 0)  -->
<svg version="1.1" id="Camada_1" xmlns:xodm="http://www.corel.com/coreldraw/odm/2003"
	 xmlns="http://www.w3.org/2000/svg" xmlns:xlink="http://www.w3.org/1999/xlink" x="0px" y="0px" viewBox="0 0 122.9 122.9"
	 style="enable-background:new 0 0 122.9 122.9;" xml:space="preserve">
<style type="text/css">
	.st0{fill:url(#SVGID_1_);}
	.st1{fill:#FFFFFF;}
</style>
<g>
	<linearGradient id="SVGID_1_" gradientUnits="userSpaceOnUse" x1="4.9996" y1="38.6365" x2="117.8799" y2="84.2431">
		<stop  offset="0" style="stop-color:#216BB9"/>
		<stop  offset="1" style="stop-color:#21438E"/>
	</linearGradient>
	<circle class="st0" cx="61.4" cy="61.4" r="60.9"/>
	<g>
		<path class="st1" d="M55,71.8c0-9.9,8.1-18,18-18c9.9,0,18,8.1,18,18c0,9.9-8,18-18,18C63.1,89.7,55,81.7,55,71.8z M67.7,67.8
			c-1.2,0.4-1.7,1-1.7,2c0,4,0,8,0,12c0,1.1,0.8,1.9,1.9,1.9c4,0,8.1,0,12.1,0c1.1,0,1.9-0.8,1.9-1.9c0-4,0-8,0-12.1
			c0-0.9-0.5-1.6-1.3-1.8c-0.4-0.1-0.4-0.3-0.4-0.6c0-1.4,0-2.7,0-4.1c-0.1-2.2-1-3.9-2.9-5.1c-2-1.3-4.1-1.4-6.2-0.2
			c-2.1,1.1-3.2,2.9-3.3,5.3C67.7,64.8,67.7,66.3,67.7,67.8z"/>
		<path class="st1" d="M72,42.1c0,3.3,0,6.6,0,9.8c-1.4,0.3-2.8,0.4-4.1,0.8c-3.3,0.8-6.1,2.5-8.5,4.8c-0.3,0.3-0.7,0.5-1.1,0.5
			c-4.2,0.4-8.5,0.4-12.7,0c-3.5-0.4-6.9-0.9-10.2-2.4c-0.9-0.4-1.8-1-2.7-1.6c-0.6-0.4-0.8-1-0.8-1.7c0-3.2,0-6.5,0-9.7
			c0-0.1,0-0.3,0.1-0.5c3,2.1,6.4,2.9,9.8,3.5c4.4,0.8,8.9,1,13.4,0.8c3.9-0.2,7.7-0.7,11.5-1.8c1.8-0.6,3.6-1.3,5.2-2.4
			C71.9,42.2,71.9,42.1,72,42.1z M39,54.2c1.8,0,3.3-1.5,3.3-3.3c0-1.8-1.5-3.3-3.3-3.3c-1.8,0-3.3,1.5-3.3,3.3
			C35.7,52.8,37.2,54.2,39,54.2z"/>
		<path class="st1" d="M51.7,44.7c-4.6,0-9.5-0.4-14.2-1.9c-1.2-0.4-2.5-0.9-3.6-1.5c-2.7-1.5-2.6-3.2,0-4.7c1.8-1,3.7-1.6,5.7-2.1
			c6-1.4,12.1-1.6,18.2-1c3.6,0.3,7.2,0.9,10.6,2.3c0.9,0.4,1.9,0.9,2.7,1.5c1.5,1.1,1.4,2.3,0,3.5c-1.4,1.1-3.1,1.7-4.8,2.2
			C61.5,44.3,56.8,44.7,51.7,44.7z"/>
		<path class="st1" d="M58.4,85.1c-4.5,0.4-8.9,0.4-13.3-0.1c-2.9-0.3-5.8-0.8-8.5-1.8c-1.2-0.4-2.3-1.1-3.4-1.7
			c-0.9-0.5-1.3-1.4-1.3-2.5c0-3,0-6,0-9.1c0-0.2,0-0.4,0-0.8c1.6,1.2,3.2,1.9,5,2.4c3.6,1.1,7.3,1.7,11,1.9c1.8,0.1,3.6,0,5.4,0
			C53.8,77.9,55.4,81.7,58.4,85.1z M39,81.2c1.8,0,3.3-1.4,3.3-3.3c0-1.8-1.5-3.3-3.3-3.3c-1.8,0-3.3,1.5-3.3,3.3
			C35.7,79.7,37.2,81.2,39,81.2z"/>
		<path class="st1" d="M53.3,71.7c-1.9,0-3.7,0.1-5.5,0c-3.5-0.2-6.9-0.7-10.2-1.7c-1.4-0.5-2.8-1.1-4.1-1.8
			c-1.1-0.6-1.6-1.5-1.6-2.9c0.1-3,0-5.9,0-8.9c0-0.2,0-0.4,0-0.6c1.3,0.6,2.5,1.3,3.7,1.8c3.6,1.4,7.4,1.9,11.2,2.3
			c3.4,0.3,6.9,0.3,10.4,0C54.6,63.4,53.3,67.4,53.3,71.7z M39,67.7c1.8,0,3.3-1.5,3.3-3.3c0-1.8-1.5-3.2-3.3-3.3
			c-1.8,0-3.3,1.5-3.3,3.3C35.7,66.3,37.2,67.7,39,67.7z"/>
		<path class="st1" d="M77.1,67.8c-0.2,0-0.4,0-0.6,0c-1.9,0-3.8,0-5.8,0c0-0.7,0-1.4,0-2.1c0-0.8,0-1.7,0-2.5c0-1.6,1.1-2.8,2.7-3
			c2.3-0.2,3.7,1,3.7,3.3c0,0.9,0,1.7,0,2.6C77.1,66.7,77.1,67.2,77.1,67.8z"/>
		<path class="st1" d="M73,79c0-0.1,0-0.3,0-0.4c0.1-0.9,0-1.6-1-2.1c-1.2-0.7-1.6-2.3-1.1-3.6c0.5-1.3,1.8-2.2,3.2-2.1
			c1.4,0.1,2.6,1.2,2.9,2.6c0.3,1.3-0.4,2.8-1.7,3.4c-0.5,0.2-0.6,0.5-0.6,1c0,0.9,0,1.8,0,2.7c0,0.7-0.3,1.1-0.9,1.1
			c-0.5,0-0.9-0.4-0.9-1.1C73,80.1,73,79.6,73,79z"/>
		<path class="st1" d="M39,49.4c0.8,0,1.5,0.7,1.5,1.5c0,0.8-0.7,1.5-1.6,1.5c-0.8,0-1.5-0.7-1.5-1.5C37.5,50.1,38.2,49.4,39,49.4z"
			/>
		<path class="st1" d="M39,79.5c-0.8,0-1.5-0.7-1.5-1.5c0-0.8,0.7-1.5,1.5-1.5c0.8,0,1.5,0.7,1.5,1.5C40.5,78.8,39.9,79.5,39,79.5z"
			/>
		<path class="st1" d="M39,66c-0.8,0-1.5-0.7-1.5-1.5c0-0.8,0.7-1.6,1.5-1.5c0.8,0,1.5,0.7,1.5,1.5C40.5,65.3,39.9,66,39,66z"/>
	</g>
</g>
</svg>
