<?xml version="1.0" encoding="utf-8"?>
<!-- Generator: Adobe Illustrator 27.4.1, SVG Export Plug-In . SVG Version: 6.00 Build 0)  -->
<svg version="1.1" id="Camada_1" xmlns:xodm="http://www.corel.com/coreldraw/odm/2003"
	 xmlns="http://www.w3.org/2000/svg" xmlns:xlink="http://www.w3.org/1999/xlink" x="0px" y="0px" viewBox="0 0 122.9 122.9"
	 style="enable-background:new 0 0 122.9 122.9;" xml:space="preserve">
<style type="text/css">
	.st0{fill:url(#SVGID_1_);}
	.st1{fill-rule:evenodd;clip-rule:evenodd;fill:#FFFFFF;}
	.st2{fill-rule:evenodd;clip-rule:evenodd;fill:url(#SVGID_00000081648947243111963440000007196928150484155327_);}
</style>
<g>
	<linearGradient id="SVGID_1_" gradientUnits="userSpaceOnUse" x1="4.9996" y1="38.6365" x2="117.8799" y2="84.2431">
		<stop  offset="0" style="stop-color:#216BB9"/>
		<stop  offset="1" style="stop-color:#21438E"/>
	</linearGradient>
	<circle class="st0" cx="61.4" cy="61.4" r="60.9"/>
	<g>
		<g>
			<path class="st1" d="M52.7,56.4c2,2.6,5.2,4.4,8.8,4.4c3.6,0,6.7-1.7,8.7-4.3C65.7,51.8,56.8,52,52.7,56.4z"/>
			<path class="st1" d="M61.4,44.2c-2.9,0-2.9,4.4,0,4.4C64.3,48.6,64.3,44.2,61.4,44.2z"/>
			<path class="st1" d="M93.3,56.9c0,0-6.1-1-7.8-3.2c-0.1-0.1-0.2-0.3-0.3-0.4c-0.4,1-3.4,3.6-8.8,4.2C76.2,60.2,76,70,84.8,73
				c0.2,0.1,0.4,0.3,0.5,0.5C87.5,72.7,93.9,69,93.3,56.9z M82.9,67.2c-0.1,0.1-0.3,0.2-0.5,0.2c0,0,0,0,0,0h0c0,0,0,0,0,0
				c-0.6,0-2-1.7-2.7-2.4c-0.7-0.7,0.4-1.8,1.1-1.1l1.6,1.6l5.9-5.9c0.7-0.7,1.8,0.4,1.1,1.1L82.9,67.2z"/>
			<path class="st1" d="M75,56.7c0-0.4,0.3-0.7,0.7-0.7c5.1-0.4,7.5-2.6,8.1-3.2l0-22.4H39.1v62.2h44.7V74.3
				C73.5,70.3,74.8,58.1,75,56.7z M45.1,67.7h14.7c1,0,1,1.5,0,1.5H45.1C44.1,69.3,44.1,67.7,45.1,67.7z M45.1,73.8h23.6
				c1,0,1,1.5,0,1.5H45.1C44.1,75.3,44.1,73.8,45.1,73.8z M65,87.4L65,87.4l-19.9,0c-1,0-1-1.5,0-1.5l19.9,0
				C66,85.9,66,87.4,65,87.4z M72.6,81.4L72.6,81.4l-27.5,0c-1,0-1-1.5,0-1.5l27.5,0C73.6,79.8,73.6,81.4,72.6,81.4z M63.8,62
				c-5.2,1-10-1.3-12.7-5.2c0,0,0,0,0-0.1c-1.9-2.7-2.7-6.3-1.9-10c0.9-4.1,5.3-8.4,9.4-9.3c8.8-1.9,16.5,5.3,15.3,14
				C73.2,56.7,69,61.1,63.8,62z"/>
			<path class="st1" d="M60.2,38.8c-4.8,0.5-8.7,4.3-9.6,9c-0.5,2.7,0.1,5.2,1.2,7.3c4.9-4.8,14.2-4.8,19.2,0
				c0.9-1.6,1.4-3.4,1.4-5.4C72.5,43.2,66.8,38,60.2,38.8z M61.4,50.1c-2,0-3.7-1.7-3.7-3.7c0-2,1.7-3.7,3.7-3.7s3.7,1.7,3.7,3.7
				C65.2,48.4,63.5,50.1,61.4,50.1z"/>
			<path class="st1" d="M84.5,93.5L39.1,93h-0.8V33.2v-3.7h46.3l0,17.2c0,0-0.7,4.2,0.7,6.6c0-0.1,0.1-0.2,0.1-0.2l0-23.5
				c0-0.4-0.3-0.8-0.8-0.8H38.3c-0.4,0-0.8,0.3-0.8,0.8v63.7c0,0.4,0.3,0.8,0.8,0.8h46.2l0,0c0.4,0,0.8-0.3,0.8-0.8V73.8
				c0-0.1,0-0.1,0-0.2c-0.5,0.2-0.7,0.2-0.7,0.2L84.5,93.5z"/>
		</g>
		<path class="st1" d="M84.5,94.1H38.3c-0.4,0-0.8-0.3-0.8-0.8V29.6c0-0.4,0.3-0.8,0.8-0.8h46.2c0.4,0,0.8,0.3,0.8,0.8l0,23.5
			c0,0.8-3,3.8-8.8,4.4C76.2,60.2,76,70,84.8,73c0.3,0.1,0.5,0.4,0.5,0.7l0,19.5C85.3,93.7,85,94.1,84.5,94.1L84.5,94.1z M39.1,92.5
			h44.7V74.3c-10.2-4-9-16.2-8.8-17.6c0-0.4,0.3-0.7,0.7-0.7c5.1-0.4,7.5-2.6,8.1-3.2l0-22.4H39.1V92.5L39.1,92.5z"/>
		
			<linearGradient id="SVGID_00000156559133578926690570000017931854761494755771_" gradientUnits="userSpaceOnUse" x1="74.0018" y1="58.9444" x2="92.8108" y2="66.9283">
			<stop  offset="0" style="stop-color:#216BB9"/>
			<stop  offset="0.2071" style="stop-color:#2162AF"/>
			<stop  offset="0.6603" style="stop-color:#21529E"/>
			<stop  offset="1" style="stop-color:#214D98"/>
		</linearGradient>
		<path style="fill-rule:evenodd;clip-rule:evenodd;fill:url(#SVGID_00000156559133578926690570000017931854761494755771_);" d="
			M84.5,74.5c-0.1,0-0.2,0-0.2,0c-10.8-3.8-9.5-16.4-9.3-17.8c0-0.4,0.3-0.7,0.7-0.7c7-0.5,7.8-3.7,8.8-3.7c1,0,1.9,3.2,8.8,3.7
			c0.4,0,0.7,0.3,0.7,0.7c0.2,1.4,1.5,14-9.3,17.8C84.7,74.5,84.6,74.5,84.5,74.5L84.5,74.5z M76.4,57.5c-0.2,2.7-0.5,12.3,8.1,15.5
			c8.5-3.2,8.3-12.8,8.1-15.5c-4.5-0.5-7-2.3-8.1-3.3C83.5,55.2,81,57,76.4,57.5z"/>
	</g>
</g>
</svg>
