<?xml version="1.0" encoding="utf-8"?>
<!-- Generator: Adobe Illustrator 27.6.1, SVG Export Plug-In . SVG Version: 6.00 Build 0)  -->
<svg version="1.1" id="Camada_1" xmlns="http://www.w3.org/2000/svg" xmlns:xlink="http://www.w3.org/1999/xlink" x="0px" y="0px"
	 viewBox="0 0 257.7 336.8" style="enable-background:new 0 0 257.7 336.8;" xml:space="preserve">
<style type="text/css">
	.st0{fill:none;stroke:#FFFFFF;stroke-width:1.1;stroke-miterlimit:10;}
</style>
<g>
	<path class="st0" d="M124.2,77.6c7.1-6.3,18-16.8,20.2-23.8c2.8-7.5,0-18.9-10.3-20.2S118,41.5,118,41.5s-5.8-9.1-16.1-7.9
		S88.8,46.3,91.6,53.8c2.4,7.7,15.2,19.5,22.1,25.4c0,0,0.1,0,0.1,0.1c2.7,2.3,6.1,3.6,9.6,3.6h3.5h2.9H152c3.2,0,5.8,1.5,6.2,5.6
		c0.3,2.5,0,6,0,10.9c0,3.1,0-2,0,4.5v1.2c0,3.2-2.8,5.8-6,5.8H96.1c-3.2,0-5.8,2.6-5.8,5.8v19v5.7c0,3,2.3,5.4,5.3,5.4l25.1,0
		c20.8,0,37.7,16.9,37.7,37.7s-16.9,37.7-37.7,37.7l-2.1,0c-15.4,0-21.1-6.3-23.3-8.4c-2.1-2.1-9.4-10.4-9.4-10.4
		c-0.8-0.9-0.7-2.3,0.2-3.2l0,0c0.9-0.8,2.2-0.8,3.1,0.1L97,208c0.4,0.4,1,0.7,1.6,0.7h5.2"/>
	<path class="st0" d="M98.8,63.6"/>
	<path class="st0" d="M110.7,199.7c-3-3-5.6-6.2-6.4-8.7c-1.9-4.8,0-12,6.7-12.8c6.7-0.8,10.5,8,10.5,8s3.8-8.8,10.5-8
		c6.7,0.8,8.6,8,6.7,12.8c-1.8,5.4-14.4,14.9-18.1,18"/>
	<path class="st0" d="M108.4,208.7c-1.9,0-6,0-8.1,0s-2.6-1.7-2.6-2.4c0-0.8,0.8-2.4,3.2-2.4s-4,0,7.4,0c5.1,0,7.5,1.6,9.6,3.3
		c1.2,1,1.9,2.3,6.3,2.3c3.7,0,21.2-0.3,21.2,19v1.2c0,16.4-15.7,17.4-19.1,17.4c-2.3,0-9.3,0-9.3,0H94.8c-3.6,0-6.5-3-6.5-6.6
		s2.9-6.6,6.5-6.6s6.5,3,6.5,6.6v18.3v1.8c0,8.2,0.1,41.2,0.1,41.2v1.9c0,3.2-2.6,5.8-5.8,5.8h-14c-3.2,0-5.8,2.6-5.8,5.8v2.4
		c0,3.2,2.6,5.8,5.8,5.8h36.1"/>
	<path class="st0" d="M46.6,328.9"/>
	<path class="st0" d="M92.5,296.5"/>
	<g>
		<path class="st0" d="M118.2,323.6h49.9c8,0,14.9-5.9,15.8-13.9c1.2-11.1-6.5-19.9-14.1-17.8c2.4-10.8-11-16.3-15.7-11.8
			c-3.4-5.9-14.6-6-18.4-0.3c-8.3-4.7-17.6,2-14.9,11.7c-10.1,1.3-13.4,11.9-11.6,18.6c0.9,3.5,3.3,6,6.8,5.5l19.7,0h0.6
			c3.1-3.1-0.4-7.9-3.8-9c-4-1.2-7.2,2.5-11.1,1.2c-2.4-0.8-3.4-2.7-3-5"/>
		<path class="st0" d="M172.2,291.6c-4.8,0.8-8.4,5-9.3,9.8"/>
		<path class="st0" d="M175.8,301.4c-7-1.1-10,10.3-5.8,13.9c0.1,0.1,0,0.2-0.1,0.2h-11.1"/>
		<path class="st0" d="M165.3,295.4c-2.5,0-5.7-3.4-6.4-5.2"/>
		<path class="st0" d="M150.7,288.1c-1.5,2.9-5.8,3-6.7,6.2c-1,3.3,2.7,5.2,5.3,6.5c3.9,2,5.5,5.1,4.8,9.5c0,0,0,0,0,0
			c-0.5,2.7-2.9,4.7-5.7,4.7H143"/>
		<path class="st0" d="M151,284.7"/>
		<path class="st0" d="M121.1,291.5c6.9-0.1,5.9,13.9,19.1,6.8"/>
		<path class="st0" d="M135.2,279.7c2.1,1.3,2.3,4.4,2.2,6.7c-0.1,2.1-1.7,4.4-1.9,5.2"/>
	</g>
	<path class="st0" d="M29.7,49c-1.9-3.1-2.9-6.8-2.5-10.7c0.8-8.2,7.3-14.6,15.5-15.3c10.1-0.9,18.6,7.1,18.6,17
		c0,2.4-0.9,5.5-2,7.5c-2.7,4.7-8.6,5.8-11.7,2.5c-3.4-3.6-1.6-9.6,2.7-9.6c1.6,0,3.4,1.3,3.4,3.4c0,2.5-2.2,3.4-3.4,3.4
		c-0.3,0-10.6,0-12,0c-1,0-3.4-0.9-3.4-3.4c0-2.4,2.1-3.4,3.4-3.4s3.4,1.1,3.4,3.7c0,3.5-1.2,5.7-4.8,6.7c-2.3,0.7-3.8,1.7-3.8,3.1
		c0,1.7,3.1,3.2,10.9,3.2c5.7,0,8.5,0.7,8.5,2.3c0,1.5-2.5,2.5-8.2,2.5S37,62.5,37,63.3c0,0.8,1.5,1.4,4.6,1.4s7.8-0.6,7.8,1.5
		c0,2.1-4.7,2.3-5.6,2.3h-3.7c-4.9,0-8.8,4-8.8,8.8v1.8c0,4.9,4,8.8,8.8,8.8h32c8.3,0,9.5,5.3,9.2,11.4c-0.1,1.6,1.3,3,2.9,3l21.8,0
		c4,0,7.2,3.2,7.2,7.2v1"/>
	<line class="st0" x1="44.1" y1="12.4" x2="44.1" y2="7.8"/>
	<line class="st0" x1="16.1" y1="40.4" x2="11.5" y2="40.4"/>
	<line class="st0" x1="77.1" y1="40.4" x2="72.5" y2="40.4"/>
	<line class="st0" x1="24.3" y1="20.6" x2="21.1" y2="17.4"/>
	<line class="st0" x1="67.1" y1="63.4" x2="63.9" y2="60.2"/>
	<line class="st0" x1="24.3" y1="60.2" x2="21.1" y2="63.4"/>
	<line class="st0" x1="67.1" y1="17.4" x2="63.9" y2="20.6"/>
	<path class="st0" d="M234,251.5"/>
	<path class="st0" d="M235.5,252.4v14.7c0,0.7,0,1.7-6.6,2.9c-4.6,0.8-9.4,1.2-14.1,1.1c-4.7,0-9.4-0.4-14.1-1.1
		c-6.6-1.2-6.6-2.3-6.6-2.9v-13.9l-10.7-0.2c-9.8,0-12.7-5.4-13.5-10.8c-0.3-1.8-0.3-87.8-0.3-89.4c0-8.1,0-8.4,0-12.9
		c-0.1-5.6-6.3-14.8-17.6-14.8H75.7c-2.7,0-4.9,2.2-4.9,4.9v1.5c0,2.1-1.7,3.7-3.7,3.7H51.8c-2.1,0-3.7,1.7-3.7,3.7v5.3"/>
	<path class="st0" d="M241.4,267.7C241.4,267.7,241.4,267.7,241.4,267.7l-1.7,0c-0.6,0-1,0.5-1,1v11.2c0,0.6,0.5,1,1,1
		c0.2,0,0.5-0.1,0.7-0.2l2.1-1.8c0,0,0,0,0,0l2.1,1.8c0.4,0.4,1,0.3,1.4-0.1c0.2-0.2,0.2-0.4,0.2-0.7v-11.3c0-0.6-0.4-1-1-1h-1.7
		c0,0,0,0,0,0v-21.4c0,0,0,0,0,0l2-0.7c0.4-0.2,0.8-0.6,0.7-1.1c0-0.4-0.3-0.7-0.7-0.9l-30.3-10.2c-0.2-0.1-0.4-0.1-0.6,0
		l-30.3,10.2c-0.6,0.2-0.9,0.8-0.6,1.4c0.1,0.2,0.3,0.4,0.6,0.5l9.1,3.1l0.9,0.3v0l2.8,0.9l17.5,5.9c0.2,0.1,0.4,0.1,0.6,0l17.2-5.8
		l4.5-1.5l4.6-1.5l2-0.7"/>
	<path class="st0" d="M68.4,154.2"/>
	<g>
		<path class="st0" d="M38.2,172.8c0.1,0.1,0.2,0.2,0.4,0.3c0,0,0,0,0,0l2.8,1.7c0.3,0.2,0.7,0.4,1.1,0.6l0,0
			c4.8,2.1,10.4,2.1,15.1-0.2c4.8-2.2,8.4-6.4,9.8-11.5c0.8-2.9,3.5-4.8,6.5-4.8c0.5,0,0.9-0.4,1-0.9c0.1-0.5-0.3-1-0.8-1.1
			c-0.1,0-2.7-0.6-3.9-3.6c0,0,0-0.1,0-0.1c-0.1-0.1-1.5-2.9-4.7-3.6c0,0,0,0,0,0c-2.1-0.4-4.2,0.4-5.6,1.9l-1.8,1.9"/>
		<path class="st0" d="M27.1,143.2"/>
		<path class="st0" d="M31.8,150.8"/>
		<path class="st0" d="M27.2,153"/>
		<path class="st0" d="M28,155.4"/>
		<path class="st0" d="M30.1,158.8"/>
		<path class="st0" d="M25.3,169.7"/>
		<path class="st0" d="M31.8,179.3"/>
		<path class="st0" d="M37.3,175.4"/>
		<path class="st0" d="M58.7,155.6l-1.9-3.5c0,0,0,0,0,0c-1.3-2.1-3.8-5.5-7.3-7c-1.5-0.7-3.4-1.1-5.5-1.6
			c-4.9-1.1-10.9-2.5-14.4-7.6c-0.2-0.3-0.5-0.4-0.8-0.4c-0.3,0-0.6,0.2-0.8,0.5c-0.2,0.3-5,8-2.9,16.9c1.2,5.3,4.6,9.8,10.1,13.4
			c0,0,0,0,0,0c-2.2,0.9-6.5,2.3-10.6,1.4c-0.3-0.1-0.5,0-0.8,0.2c-0.2,0.2-0.4,0.4-0.4,0.7c0,0.1-0.3,2.3,0.6,5.1
			c0.8,2.5,2.9,6,7.8,8c0.1,0.1,0.2,0.1,0.4,0.1c0.3,0,0.7-0.2,0.9-0.5c0,0,1.3-2.4,4.2-4.2"/>
		<path class="st0" d="M56,154.6"/>
		<line class="st0" x1="30.8" y1="144.4" x2="25.9" y2="141.8"/>
		<path class="st0" d="M29.9,152.2c-1.2,0.4-4.6,0-4.6,0"/>
		<path class="st0" d="M34.6,160.8c-1.2,0.4-4,0.9-4,0.9"/>
		<path class="st0" d="M35.2,166.2c0,0,5.8,2,9.5,0"/>
	</g>
</g>
</svg>
