<?xml version="1.0" encoding="utf-8"?>
<!-- Generator: Adobe Illustrator 27.6.1, SVG Export Plug-In . SVG Version: 6.00 Build 0)  -->
<svg version="1.1" id="Camada_1" xmlns="http://www.w3.org/2000/svg" xmlns:xlink="http://www.w3.org/1999/xlink" x="0px" y="0px"
	 viewBox="0 0 464.7 112.8" style="enable-background:new 0 0 464.7 112.8;" xml:space="preserve">
<style type="text/css">
	.st0{fill:none;stroke:#2B61AE;stroke-miterlimit:10;}
</style>
<g>
	<g>
		<path class="st0" d="M105.8,35.7c-1.4-2.3-2.2-5.1-1.9-8.1c0.6-6.2,5.5-11.1,11.7-11.6c7.7-0.7,14.1,5.4,14.1,12.9
			c0,1.8-0.7,4.2-1.5,5.7c-2.1,3.6-6.5,4.4-8.9,1.9c-2.6-2.7-1.2-7.3,2.1-7.3c1.2,0,2.5,1,2.5,2.5c0,1.9-1.7,2.5-2.5,2.5
			c-0.2,0-8.1,0-9.1,0c-0.8,0-2.5-0.7-2.5-2.5c0-1.8,1.6-2.5,2.5-2.5s2.5,0.8,2.5,2.8c0,2.7-0.9,4.3-3.7,5.1
			c-1.7,0.5-2.9,1.3-2.9,2.3c0,1.3,2.4,2.4,8.2,2.4c4.3,0,6.4,0.5,6.4,1.7c0,1.1-1.9,1.9-6.2,1.9c-4.4,0-5.4,0.5-5.4,1.1
			c0,0.6,1.1,1,3.5,1s5.9-0.4,5.9,1.2c0,1.6-3.6,1.7-4.3,1.7h-2.8"/>
		<line class="st0" x1="116.6" y1="8" x2="116.6" y2="4.6"/>
		<line class="st0" x1="95.4" y1="29.2" x2="91.9" y2="29.2"/>
		<line class="st0" x1="141.6" y1="29.2" x2="138.2" y2="29.2"/>
		<line class="st0" x1="101.6" y1="14.2" x2="99.2" y2="11.8"/>
		<line class="st0" x1="134.1" y1="46.7" x2="131.7" y2="44.3"/>
		<line class="st0" x1="101.6" y1="44.3" x2="99.2" y2="46.7"/>
		<line class="st0" x1="134.1" y1="11.8" x2="131.7" y2="14.2"/>
	</g>
	<g>
		<path class="st0" d="M22.6,76.7h-5c-0.6,0-1.1-0.2-1.5-0.6l-7.5-7.5c-0.8-0.8-2.1-0.8-2.9-0.1l0,0c-0.9,0.8-1,2.1-0.2,3
			c0,0,7,7.9,9,9.9s7.5,8.1,22.2,8.1l2,0l8.5-0.2h1.3"/>
		<path class="st0" d="M29.2,68.2c-2.8-2.9-5.3-5.9-6.1-8.3c-1.8-4.5,0-11.4,6.4-12.2c6.4-0.8,10.1,7.6,10.1,7.6s3.6-8.4,10.1-7.6
			c6.4,0.8,8.2,7.6,6.4,12.2C54.5,65.1,42.4,74.1,38.9,77"/>
		<path class="st0" d="M46.8,77.7c-2.1-0.3-3.8-0.2-4.7-0.2c-4.2,0-4.9-1.3-6-2.2c-2-1.6-4.3-3.1-9.2-3.1c-10.9,0-4.8,0-7.1,0
			s-3,1.6-3,2.3c0,0.7,0.6,2.3,2.5,2.3s5.9,0,7.7,0"/>
	</g>
	<g>
		<path class="st0" d="M347.8,73.3"/>
		<path class="st0" d="M205.9,77c0,6.3,4.4,11.3,14.5,11.3h52.7c7.5,0,8.3-5.8,8.3-7.3V44.3c0-2,1.6-3.6,3.6-3.6h29.9
			c2.6,0,4.6-2.1,4.6-4.6v0c0-2.6-2.1-4.6-4.6-4.6h-13.8c-4.2,0-5.1,3.2-5.1,5.7v34.2v2.4c0,9.6,9.4,10.4,13.1,6.6l4.8-4.4
			c0.5-0.4,1.2-0.1,1.2,0.5v9.8c0,0.5,0,1.4,5.4,2.4c3.8,0.6,7.7,1,11.5,0.9c3.9,0,7.7-0.3,11.5-0.9c5.4-1,5.4-1.8,5.4-2.4v-12"/>
		<path class="st0" d="M414.2,91.7h-16.7c-2.7,0-3.8,0-3.8-3.4V77c0-1.4,1.1-2.4,2.4-2.4l0,0c1.4,0,2.4,1.1,2.4,2.4v7.5
			c0,1.4-1.1,2.1-2.4,2.1l-40.7,0c0,0,0,0,0,0c0,0,0-12.4,0-16.4c0-0.2,0-0.4,0-0.5c0-0.4,0-0.7,0-0.7l1.6-0.5
			c0.4-0.1,0.6-0.5,0.6-0.9c0-0.3-0.3-0.6-0.6-0.7l-24.8-8.3c-0.2-0.1-0.4-0.1-0.5,0L307,66.9c-0.5,0.2-0.7,0.7-0.5,1.1
			c0.1,0.2,0.3,0.3,0.5,0.4l7.5,2.5l0.7,0.2v0l2.3,0.8l14.3,4.8c0.2,0.1,0.4,0.1,0.5,0l14.1-4.7l3.7-1.2l3.8-1.3l1.6-0.6
			 M353.8,86.6C353.8,86.6,353.8,86.6,353.8,86.6l-1.4,0c-0.5,0-0.8,0.4-0.8,0.8v9.2c0,0.5,0.4,0.8,0.8,0.8c0.2,0,0.4-0.1,0.5-0.2
			l1.7-1.5c0,0,0,0,0,0l1.7,1.5c0.3,0.3,0.9,0.3,1.2-0.1c0.1-0.1,0.2-0.3,0.2-0.5V88"/>
	</g>
	<path class="st0" d="M205.9,67.5"/>
	<path class="st0" d="M236.4,108h23.3c2.4,0,4.4-1.3,4.4-3.7V103c0-2.4-2-3.6-4.4-3.6h-8.6c-4.9,0-4.9-2.5-4.9-3.6v-6.9"/>
	<path class="st0" d="M121.7,90.5"/>
	<path class="st0" d="M178.7,89.7v-2.6c0-1.8-1.4-3.2-3.2-3.2h-0.7c-1.8,0-3.2,1.4-3.2,3.2v2.6c0,1.8,1.4,3.2,3.2,3.2H203
		c6.6,0,10.4,1.2,10.4,5.9s0,1.3,0,2.6c0,3.1,0.4,6.6,8.3,6.6c0,0,10.3,0,15.3,0"/>
	<path class="st0" d="M48.6,89.4h33.2c3.4,0,6.1,2.8,6.1,6.2c0,3.4-2.7,6.2-6.1,6.2c-3.4,0-6.1-2.8-6.1-6.2l0-7.7V75.6v-1.6
		c0-1.9,1.5-3.5,3.5-3.5h18.5c7.3,0,7.5-5.2,7.5-10.5v-6.1c0-1.9,1.5-3.5,3.5-3.5l5.1,0.1"/>
	<path class="st0" d="M132,93.1c4.2-3.7,10.7-10,12-14.1c1.7-4.5,0-11.2-6.1-12c-6.1-0.7-9.5,4.7-9.5,4.7s-3.4-5.4-9.5-4.7
		c-6.1,0.7-7.8,7.5-6.1,12c1.4,4.5,9,11.6,13.1,15.1c0,0,0.9,0.9,1.3,1.4c3.1,3.1,7.9,3.4,7.9,3.4s35.2,0,40.6,0c0,0,3-0.1,3-3.3
		v-6.1"/>
	<g>
		<path class="st0" d="M206.4,63.5c0.1,0.1,0.2,0.2,0.3,0.2c0,0,0,0,0,0l2.2,1.4c0.3,0.2,0.5,0.3,0.8,0.4l0,0
			c3.8,1.7,8.2,1.6,12-0.1c3.8-1.8,6.6-5.1,7.7-9.1c0.6-2.3,2.7-3.8,5.1-3.7c0.4,0,0.7-0.3,0.8-0.7c0-0.4-0.2-0.8-0.6-0.8
			c-0.1,0-2.2-0.5-3.1-2.8c0,0,0,0,0-0.1c0-0.1-1.2-2.3-3.7-2.8c0,0,0,0,0,0c-1.6-0.3-3.3,0.3-4.4,1.5l-1.4,1.5"/>
		<path class="st0" d="M201.3,46.2"/>
		<path class="st0" d="M197.7,47.9"/>
		<path class="st0" d="M198.3,49.8"/>
		<path class="st0" d="M200,52.5"/>
		<path class="st0" d="M201.3,68.7"/>
		<path class="st0" d="M205.6,65.6"/>
		<path class="st0" d="M222.5,50l-1.5-2.8c0,0,0,0,0,0c-1-1.6-3-4.3-5.8-5.6c-1.2-0.5-2.7-0.9-4.3-1.2c-3.8-0.9-8.6-2-11.4-6
			c-0.1-0.2-0.4-0.3-0.7-0.3c-0.3,0-0.5,0.1-0.6,0.4c-0.2,0.3-3.9,6.3-2.3,13.4c1,4.1,3.7,7.7,8,10.6c0,0,0,0,0,0
			c-1.7,0.7-5.1,1.8-8.4,1.1c-0.2,0-0.4,0-0.6,0.1c-0.2,0.1-0.3,0.3-0.3,0.5c0,0.1-0.2,1.9,0.5,4c0.7,2,2.3,4.7,6.2,6.3
			c0.1,0,0.2,0.1,0.3,0.1c0.3,0,0.5-0.1,0.7-0.4c0,0,1.3-1.9,3.6-3.3v0.7v10.2"/>
		<path class="st0" d="M220.4,49.2"/>
		<line class="st0" x1="200.6" y1="41.2" x2="196.7" y2="39.1"/>
		<path class="st0" d="M199.8,47.3c-1,0.3-3.6,0-3.6,0"/>
		<path class="st0" d="M203.5,54.1c-1,0.3-3.2,0.7-3.2,0.7"/>
		<path class="st0" d="M204,58.3c0,0,4.6,1.6,7.5,0"/>
	</g>
	<g>
		<path class="st0" d="M414.2,91.7h34.7c5.6,0,10.4-4.1,11-9.6c0.9-7.7-4.5-13.8-9.8-12.4c1.7-7.5-7.6-11.3-10.9-8.2
			c-2.3-4.1-10.1-4.1-12.8-0.2c-5.7-3.3-12.2,1.4-10.4,8.1c-7,0.9-9.3,8.3-8.1,12.9c0.6,2.4,2.3,4.2,4.7,3.8l13.7,0h0.4
			c2.2-2.2-0.3-5.5-2.6-6.2c-2.8-0.9-5,1.8-7.7,0.8c-1.6-0.6-2.4-1.8-2.1-3.5"/>
		<path class="st0" d="M451.7,69.5c-3.3,0.6-5.9,3.5-6.5,6.8"/>
		<path class="st0" d="M454.2,76.3c-4.8-0.8-6.9,7.2-4,9.6c0.1,0.1,0,0.1-0.1,0.1h-7.7"/>
		<path class="st0" d="M446.9,72.2c-1.7,0-4-2.3-4.5-3.6"/>
		<path class="st0" d="M436.8,67c-1,2-4,2.1-4.7,4.3c-0.7,2.3,1.9,3.6,3.6,4.5c2.7,1.4,3.8,3.5,3.3,6.6c0,0,0,0,0,0
			c-0.3,1.9-2,3.3-3.9,3.3h-3.7"/>
		<path class="st0" d="M437,64.7"/>
		<path class="st0" d="M416.2,69.5c4.8-0.1,4.1,9.7,13.3,4.7"/>
		<path class="st0" d="M426.1,61.2c1.5,0.9,1.6,3.1,1.5,4.7c-0.1,1.4-1.2,3-1.3,3.6"/>
	</g>
</g>
</svg>
