<svg id="Grupo_1521" data-name="Grupo 1521" xmlns="http://www.w3.org/2000/svg" width="139.35px" height="132px" viewBox="0 0 139.352 132.004"> <g id="Grupo_1514" data-name="Grupo 1514" transform="translate(0 72.725)"> <g id="Grupo_1510" data-name="Grupo 1510" transform="translate(89.714)"> <g id="Grupo_1509" data-name="Grupo 1509"> <g id="Grupo_1508" data-name="Grupo 1508"> <path id="Caminho_432" data-name="Caminho 432" d="M563.275,47.639a2.978,2.978,0,0,1-2.969-3.106l.109-2.4a2.96,2.96,0,0,1,1.085-2.157,2.026,2.026,0,0,0,.772-2.492,5.151,5.151,0,0,0-4.294-3.393,2.972,2.972,0,0,1-.812-5.646l18.049-8.281a10.924,10.924,0,0,1,13.223,3.229l2.73,3.509a2.982,2.982,0,0,1-.805,4.369L574.4,40.935c-3.454,2.1-6.431,4.048-9.107,5.973l-.444.287A2.943,2.943,0,0,1,563.275,47.639ZM565.208,31.3a10.51,10.51,0,0,1,2.744,4.43h0a9.444,9.444,0,0,1,.389,1.966q1.424-.9,2.969-1.843l13.114-7.932-.682-.874a4.994,4.994,0,0,0-6.049-1.475Z" transform="translate(-555.43 -19.154)" fill="#fff"></path> </g> </g> </g> <g id="Grupo_1513" data-name="Grupo 1513" transform="translate(0 1.606)"> <g id="Grupo_1512" data-name="Grupo 1512"> <g id="Grupo_1511" data-name="Grupo 1511"> <path id="Caminho_433" data-name="Caminho 433" d="M616.563,77.063a18.186,18.186,0,0,1-5.953-1L569.091,61.683a12.26,12.26,0,0,0-8.663.232l-14.049,5.707a2.973,2.973,0,0,1-2.239-5.509l14.049-5.707a18.265,18.265,0,0,1,12.848-.341l41.519,14.383a12.363,12.363,0,0,0,10.936-1.44l21.278-14.424A251.731,251.731,0,0,0,667.44,37.257l7.373-6.321a2.5,2.5,0,0,0-2.922-4.034L650.968,39.565a101.072,101.072,0,0,0-15.653,11.2c-3.864,3.509-8.089,4.99-12.526,4.4-7.291-.969-12.882-7.414-15.046-10.288H594.486a2.973,2.973,0,0,1,0-5.946H637.65c1.577-1.024,1.474-1.925,1.195-2.833a5.155,5.155,0,0,0-4.294-3.386l-50.216-7.209a17.463,17.463,0,0,0-8.274.819L548,36.247a2.969,2.969,0,1,1-1.98-5.6l28.064-9.926a23.384,23.384,0,0,1,11.093-1.1L635.4,26.833a11.109,11.109,0,0,1,9.127,7.523,9.384,9.384,0,0,1,.389,1.959c1.017-.642,2.007-1.249,2.977-1.836l20.923-12.67a8.447,8.447,0,0,1,9.871,13.639l-7.366,6.321a259.237,259.237,0,0,1-23.21,17.735L626.829,73.929A18.319,18.319,0,0,1,616.563,77.063Zm-.9-32.18c2.1,2,4.874,3.993,7.926,4.4,2.641.348,5.195-.608,7.734-2.915.56-.505,1.12-1,1.686-1.481Z" transform="translate(-542.288 -19.39)" fill="#fff"></path> </g> </g> </g> </g> <g id="Grupo_1520" data-name="Grupo 1520" transform="translate(41.753)"> <g id="Grupo_1515" data-name="Grupo 1515" transform="translate(47.54)"> <path id="Caminho_434" data-name="Caminho 434" d="M576.168,50.1a20.825,20.825,0,0,1-20.8-20.8c0-12.254,14.1-20.8,26.747-20.8h14.854V23.362C596.969,36.005,588.429,50.1,576.168,50.1Zm5.946-35.655c-10.691,0-20.8,7.216-20.8,14.855a14.876,14.876,0,0,0,14.854,14.861c7.639,0,14.861-10.11,14.861-20.8V14.447Z" transform="translate(-555.368 -8.501)" fill="#fff"></path> </g> <g id="Grupo_1516" data-name="Grupo 1516"> <path id="Caminho_435" data-name="Caminho 435" d="M569.2,50.1c-12.26,0-20.8-14.1-20.8-26.739V8.5h14.855C575.908,8.5,590,17.048,590,29.3A20.825,20.825,0,0,1,569.2,50.1ZM554.343,14.447v8.915c0,10.69,7.222,20.8,14.861,20.8A14.876,14.876,0,0,0,584.059,29.3c0-7.639-10.11-14.855-20.8-14.855Z" transform="translate(-548.404 -8.501)" fill="#fff"></path> </g> <g id="Grupo_1517" data-name="Grupo 1517" transform="translate(41.6 44.573)"> <rect id="Retângulo_1064" data-name="Retângulo 1064" width="5.943" height="40.397" fill="#fff"></rect> </g> <g id="Grupo_1518" data-name="Grupo 1518" transform="translate(21.67 21.672)"> <rect id="Retângulo_1065" data-name="Retângulo 1065" width="5.942" height="29.416" transform="translate(0 4.202) rotate(-45)" fill="#fff"></rect> </g> <g id="Grupo_1519" data-name="Grupo 1519" transform="translate(42.47 21.672)"> <rect id="Retângulo_1066" data-name="Retângulo 1066" width="29.416" height="5.942" transform="translate(0 20.801) rotate(-45)" fill="#fff"></rect> </g> </g> </svg>